<?xml version="1.0" encoding="UTF-8"?>
<svg version="1.1" xmlns="http://www.w3.org/2000/svg" width="512" height="512">
<path d="M0 0 C5.39352182 3.23054319 10.30273232 7.44926224 14.5625 12.0625 C14.5625 12.7225 14.5625 13.3825 14.5625 14.0625 C15.2225 14.0625 15.8825 14.0625 16.5625 14.0625 C17.8671875 15.390625 17.8671875 15.390625 19.4375 17.3125 C23.60094782 22.21942064 28.12585249 26.70758988 32.6953125 31.23046875 C33.17129883 31.70274902 33.64728516 32.1750293 34.13769531 32.66162109 C35.55496749 34.05509397 36.99232478 35.42804111 38.4296875 36.80078125 C40.5625 39.0625 40.5625 39.0625 40.5625 41.0625 C41.2225 41.0625 41.8825 41.0625 42.5625 41.0625 C44.078125 42.56640625 44.078125 42.56640625 45.8125 44.625 C46.43382812 45.35460938 47.05515625 46.08421875 47.6953125 46.8359375 C48.31148438 47.57070313 48.92765625 48.30546875 49.5625 49.0625 C53.64960291 53.90069503 53.64960291 53.90069503 58 58.5 C62.33730665 62.83730665 66.30073566 67.5076586 70.1875 72.25 C72.48984128 75.05637216 72.48984128 75.05637216 74.9375 77.4375 C77.13786642 79.63786642 79.23935921 81.86896704 81.3125 84.1875 C81.90546875 84.85007812 82.4984375 85.51265625 83.109375 86.1953125 C84.5625 88.0625 84.5625 88.0625 85.5625 91.0625 C86.2225 91.0625 86.8825 91.0625 87.5625 91.0625 C89.12682787 92.75524284 90.61578572 94.51819852 92.0625 96.3125 C93.25359375 97.77429688 93.25359375 97.77429688 94.46875 99.265625 C96.5625 102.0625 96.5625 102.0625 97.59375 104.296875 C98.85681947 106.59892097 100.22900855 106.94189676 102.5625 108.0625 C104.16796875 109.83984375 104.16796875 109.83984375 105.75 112 C108.44308343 115.59270016 111.20365894 119.09974703 114.0625 122.5625 C116.93664068 126.06766986 119.80512843 129.57594952 122.625 133.125 C123.19347656 133.83785156 123.76195312 134.55070313 124.34765625 135.28515625 C125.5625 137.0625 125.5625 137.0625 125.5625 139.0625 C126.5525 139.3925 127.5425 139.7225 128.5625 140.0625 C130.17578125 142.06640625 130.17578125 142.06640625 131.875 144.625 C133.99979146 147.76561034 136.12955771 150.86631757 138.4375 153.875 C145.75218881 163.56307189 152.31785352 173.65902134 158.5625 184.0625 C159.1709375 185.03832031 159.779375 186.01414063 160.40625 187.01953125 C164.44735901 193.63950588 167.4895003 200.32958094 170.22265625 207.55859375 C170.99215434 209.57095463 171.79393819 211.57295427 172.68359375 213.53515625 C179.52346906 228.6254648 180.81769435 246.8800503 180.875 263.1875 C180.87761841 263.89748138 180.88023682 264.60746277 180.88293457 265.33895874 C180.8877639 277.58975581 179.79062119 289.2105591 176.5625 301.0625 C176.28535156 302.09246094 176.00820313 303.12242187 175.72265625 304.18359375 C169.99545647 321.94583084 158.36602829 339.64021384 145.5625 353.0625 C144.9025 353.0625 144.2425 353.0625 143.5625 353.0625 C143.35496094 353.60390625 143.14742188 354.1453125 142.93359375 354.703125 C141.03354037 357.97273253 138.40050225 360.29954526 135.625 362.8125 C135.04524414 363.34182129 134.46548828 363.87114258 133.86816406 364.41650391 C128.71737918 369.0505206 123.29232813 373.16621687 117.5625 377.0625 C116.82773437 377.57039063 116.09296875 378.07828125 115.3359375 378.6015625 C113.09875561 380.12284618 110.83775095 381.59877993 108.5625 383.0625 C107.66789062 383.64386719 106.77328125 384.22523438 105.8515625 384.82421875 C77.62058166 402.71351638 47.0381635 414.48484518 14.5625 422.0625 C12.66623111 422.5608456 10.77037938 423.06078193 8.875 423.5625 C-5.37097631 427.05786554 -19.75433891 429.42766126 -34.3125 431.1875 C-35.02779877 431.2747937 -35.74309753 431.3620874 -36.48007202 431.45202637 C-46.30831412 432.61847841 -56.07438359 433.21373952 -65.96875 433.44140625 C-67.0337674 433.4697052 -68.09878479 433.49800415 -69.19607544 433.52716064 C-74.48633964 433.66453887 -79.76996295 433.75381126 -85.06201172 433.76416016 C-87.00752179 433.80331995 -88.95300021 433.84409599 -90.8984375 433.88671875 C-91.7896228 433.87129532 -92.68080811 433.85587189 -93.59899902 433.83998108 C-96.17937685 433.92285551 -98.0541106 434.0596028 -100.4375 435.0625 C-102.70283348 437.83691318 -104.13053689 440.74092249 -105.4375 444.0625 C-106.0975 444.0625 -106.7575 444.0625 -107.4375 444.0625 C-107.64375 444.866875 -107.85 445.67125 -108.0625 446.5 C-109.87873091 451.20568917 -112.52871737 454.9646326 -115.4375 459.0625 C-116.09621094 460.00222656 -116.75492188 460.94195312 -117.43359375 461.91015625 C-120.8261879 466.67517979 -124.17232967 471.03428358 -128.4375 475.0625 C-129.0975 475.908125 -129.7575 476.75375 -130.4375 477.625 C-132.55628607 480.20727053 -134.80952922 482.01140086 -137.4375 484.0625 C-138.20964844 484.83980469 -138.98179687 485.61710937 -139.77734375 486.41796875 C-163.90817783 510.40706519 -163.90817783 510.40706519 -177.59106445 510.66918945 C-178.30351318 510.65460693 -179.01596191 510.64002441 -179.75 510.625 C-180.49403076 510.61621826 -181.23806152 510.60743652 -182.00463867 510.59838867 C-189.72376131 510.313863 -195.49506653 508.0784943 -200.9375 502.5 C-201.4325 501.695625 -201.9275 500.89125 -202.4375 500.0625 C-202.85 499.44375 -203.2625 498.825 -203.6875 498.1875 C-204.86117403 494.86209026 -204.9135266 492.57319618 -204.4375 489.0625 C-201.21985638 483.03623525 -195.17842729 479.74217554 -189.6015625 476.171875 C-184.58113488 472.82492325 -180.03745966 468.95645319 -175.4375 465.0625 C-174.43203125 464.26005859 -174.43203125 464.26005859 -173.40625 463.44140625 C-169.45463109 460.24371463 -166.56979684 456.80125757 -163.69921875 452.6015625 C-163.28285156 452.09367187 -162.86648437 451.58578125 -162.4375 451.0625 C-161.7775 451.0625 -161.1175 451.0625 -160.4375 451.0625 C-160.4375 450.4025 -160.4375 449.7425 -160.4375 449.0625 C-159.7775 449.0625 -159.1175 449.0625 -158.4375 449.0625 C-158.18484375 448.36898438 -157.9321875 447.67546875 -157.671875 446.9609375 C-156.27103905 443.67163283 -154.53005092 440.75127654 -152.6875 437.6875 C-145.11237119 424.55201383 -141.41686321 411.72227036 -138.61669922 396.87255859 C-135.89723514 382.9041386 -135.89723514 382.9041386 -130.75390625 378.6796875 C-129.88572266 378.31230469 -129.88572266 378.31230469 -129 377.9375 C-128.3090625 377.63457031 -127.618125 377.33164062 -126.90625 377.01953125 C-123.94377315 375.87110272 -120.97269708 374.74670696 -118 373.625 C-108.96065684 370.19233804 -101.69088501 365.70068766 -94.015625 359.83203125 C-91.53862677 358.13190973 -89.21752224 357.15222997 -86.4375 356.0625 C-85.25419817 354.19605094 -85.25419817 354.19605094 -84.4375 352.0625 C-82.9375 349.8125 -82.9375 349.8125 -81.4375 348.0625 C-80.7775 348.0625 -80.1175 348.0625 -79.4375 348.0625 C-79.16164062 347.35738281 -78.88578125 346.65226562 -78.6015625 345.92578125 C-77.41066845 342.9965016 -76.12874864 340.12496414 -74.8125 337.25 C-74.36648438 336.27417969 -73.92046875 335.29835938 -73.4609375 334.29296875 C-73.12320312 333.55691406 -72.78546875 332.82085937 -72.4375 332.0625 C-71.7775 332.0625 -71.1175 332.0625 -70.4375 332.0625 C-70.4375 322.4925 -70.4375 312.9225 -70.4375 303.0625 C-71.0975 303.0625 -71.7575 303.0625 -72.4375 303.0625 C-73.41913422 301.12624902 -74.39772454 299.18845461 -75.375 297.25 C-75.92027344 296.17105469 -76.46554688 295.09210938 -77.02734375 293.98046875 C-78.4375 291.0625 -78.4375 291.0625 -79.4375 288.0625 C-80.0975 287.7325 -80.7575 287.4025 -81.4375 287.0625 C-83.4375 286.0625 -83.4375 286.0625 -84.4375 283.0625 C-86.43766466 281.85367904 -86.43766466 281.85367904 -88.4375 281.0625 C-88.4375 280.4025 -88.4375 279.7425 -88.4375 279.0625 C-89.01113281 278.95164062 -89.58476562 278.84078125 -90.17578125 278.7265625 C-92.7091505 277.98274079 -94.42498412 276.8937937 -96.625 275.4375 C-102.74820454 271.64037766 -109.29729882 269.12105406 -115.97265625 266.48046875 C-119.4375 265.0625 -119.4375 265.0625 -120.4375 264.0625 C-120.68420741 257.53124595 -120.08239394 251.38048382 -119.0625 244.9375 C-118.93617188 244.08285156 -118.80984375 243.22820312 -118.6796875 242.34765625 C-117.92688531 237.44691398 -116.85430069 232.82190084 -115.4375 228.0625 C-114.34181371 223.62402675 -113.32299914 219.16699172 -112.29296875 214.71289062 C-111.2062124 210.07584129 -110.0510726 205.55211636 -108.4375 201.0625 C-107.7775 201.0625 -107.1175 201.0625 -106.4375 201.0625 C-106.210625 199.845625 -105.98375 198.62875 -105.75 197.375 C-104.35887325 191.01846464 -101.87364681 185.07848086 -99.4375 179.0625 C-98.7775 179.0625 -98.1175 179.0625 -97.4375 179.0625 C-97.33566406 178.37027344 -97.23382813 177.67804688 -97.12890625 176.96484375 C-94.07769953 164.15667092 -84.55447324 150.83316479 -77.53515625 139.81640625 C-75.74191293 136.95104593 -74.09451126 134.0082978 -72.4375 131.0625 C-71.7775 131.0625 -71.1175 131.0625 -70.4375 131.0625 C-70.0971875 130.1034375 -70.0971875 130.1034375 -69.75 129.125 C-67.95184174 124.92929739 -65.69845979 121.02349444 -63.4375 117.0625 C-62.7775 117.0625 -62.1175 117.0625 -61.4375 117.0625 C-61.0971875 116.1034375 -61.0971875 116.1034375 -60.75 115.125 C-58.95184174 110.92929739 -56.69845979 107.02349444 -54.4375 103.0625 C-53.7775 103.0625 -53.1175 103.0625 -52.4375 103.0625 C-52.1075 101.0825 -51.7775 99.1025 -51.4375 97.0625 C-52.324375 97.68125 -53.21125 98.3 -54.125 98.9375 C-57.4375 101.0625 -57.4375 101.0625 -60.25 102.125 C-61.3328125 102.5890625 -61.3328125 102.5890625 -62.4375 103.0625 C-62.7675 104.0525 -63.0975 105.0425 -63.4375 106.0625 C-64.92606066 107.39514423 -66.48053645 108.65469479 -68.0625 109.875 C-73.84070828 114.46112063 -79.17769665 119.41916116 -84.48486328 124.5402832 C-85.4069458 125.41946411 -85.4069458 125.41946411 -86.34765625 126.31640625 C-86.89558838 126.84564697 -87.44352051 127.3748877 -88.00805664 127.92016602 C-89.4375 129.0625 -89.4375 129.0625 -91.4375 129.0625 C-91.705625 129.660625 -91.97375 130.25875 -92.25 130.875 C-93.43667406 133.06097854 -94.53349113 134.47582594 -96.4375 136.0625 C-97.0975 136.0625 -97.7575 136.0625 -98.4375 136.0625 C-98.66695312 136.60132813 -98.89640625 137.14015625 -99.1328125 137.6953125 C-100.82470681 140.76503691 -103.03228183 143.29829705 -105.3125 145.9375 C-107.94603371 148.99302427 -110.47099559 152.03328822 -112.6328125 155.4453125 C-113.52613281 156.74082031 -113.52613281 156.74082031 -114.4375 158.0625 C-115.0975 158.0625 -115.7575 158.0625 -116.4375 158.0625 C-116.7778125 159.0525 -116.7778125 159.0525 -117.125 160.0625 C-118.8253815 163.94908628 -120.83373084 167.69929817 -123.4375 171.0625 C-124.0975 171.0625 -124.7575 171.0625 -125.4375 171.0625 C-125.7778125 172.2690625 -125.7778125 172.2690625 -126.125 173.5 C-127.77381588 177.97535739 -130.04294412 181.94971318 -132.4375 186.0625 C-133.0975 186.0625 -133.7575 186.0625 -134.4375 186.0625 C-134.54449219 186.74957031 -134.65148437 187.43664062 -134.76171875 188.14453125 C-135.55468037 191.56847537 -136.82835177 194.53599527 -138.25 197.75 C-139.32221771 200.18385151 -140.3870705 202.61929635 -141.4375 205.0625 C-141.76645264 205.82127441 -142.09540527 206.58004883 -142.43432617 207.36181641 C-144.99960587 213.48773098 -146.69627972 219.58502219 -148.125 226.0625 C-148.54350139 227.91713533 -148.96397465 229.77132715 -149.38671875 231.625 C-149.65488403 232.83349609 -149.65488403 232.83349609 -149.9284668 234.06640625 C-150.4375 236.0625 -150.4375 236.0625 -151.4375 238.0625 C-151.71285948 239.64131181 -151.94620703 241.22758545 -152.15625 242.81640625 C-152.28386719 243.75291016 -152.41148437 244.68941406 -152.54296875 245.65429688 C-152.80649938 247.63860424 -153.06951826 249.62297963 -153.33203125 251.60742188 C-153.45964844 252.54263672 -153.58726562 253.47785156 -153.71875 254.44140625 C-153.88987305 255.73413452 -153.88987305 255.73413452 -154.06445312 257.05297852 C-154.4375 259.0625 -154.4375 259.0625 -155.4375 260.0625 C-158.1255009 260.39509854 -160.8047109 260.678889 -163.5 260.9375 C-175.85570238 262.23277631 -188.11025083 263.65016251 -199.4375 269.0625 C-200.25476563 269.4440625 -201.07203125 269.825625 -201.9140625 270.21875 C-217.87671759 277.56890572 -217.87671759 277.56890572 -229.4375 290.0625 C-230.0975 290.0625 -230.7575 290.0625 -231.4375 290.0625 C-231.4375 290.7225 -231.4375 291.3825 -231.4375 292.0625 C-232.0975 292.0625 -232.7575 292.0625 -233.4375 292.0625 C-235.47750022 297.11031449 -237.39230494 302.20400149 -239.31640625 307.296875 C-240.4375 310.0625 -240.4375 310.0625 -241.4375 311.0625 C-241.70317739 313.26467039 -241.8995001 315.47535852 -242.0625 317.6875 C-242.15789062 318.89664062 -242.25328125 320.10578125 -242.3515625 321.3515625 C-242.50747322 328.08407081 -241.19941954 333.45422168 -238.3125 339.5 C-238.00046631 340.15669678 -237.68843262 340.81339355 -237.36694336 341.48999023 C-233.4246852 349.48041205 -228.29567126 354.84006108 -220.94140625 359.8359375 C-220.44511719 360.24070312 -219.94882813 360.64546875 -219.4375 361.0625 C-219.4375 361.7225 -219.4375 362.3825 -219.4375 363.0625 C-218.59574219 363.31386719 -217.75398438 363.56523437 -216.88671875 363.82421875 C-213.8056389 364.93033688 -211.05543427 366.26850993 -208.18530273 367.82983398 C-197.7433766 373.46902735 -186.36254302 377.29911452 -174.50390625 378.44140625 C-171.4375 379.0625 -171.4375 379.0625 -170.19628906 380.70019531 C-169.1642941 383.91305993 -169.64445109 386.16393318 -170.23046875 389.48046875 C-170.44896484 390.73537109 -170.66746094 391.99027344 -170.89257812 393.28320312 C-171.07348999 394.26172241 -171.07348999 394.26172241 -171.25805664 395.26000977 C-171.62008568 397.2233489 -171.95961946 399.19079288 -172.29882812 401.15820312 C-173.52139247 408.01367141 -174.85514596 414.58225306 -177.4375 421.0625 C-184.60674078 424.64712039 -195.16535548 420.72033035 -202.29467773 418.43212891 C-212.22253707 415.09276505 -221.90619556 411.41123783 -231.4375 407.0625 C-232.56414062 406.58425781 -233.69078125 406.10601562 -234.8515625 405.61328125 C-252.31577687 398.06067438 -269.14091854 388.69392222 -283.4375 376.0625 C-284.24316406 375.38832031 -285.04882812 374.71414063 -285.87890625 374.01953125 C-290.03116027 370.51719525 -290.03116027 370.51719525 -291.4375 369.0625 C-291.4375 368.4025 -291.4375 367.7425 -291.4375 367.0625 C-292.0975 367.0625 -292.7575 367.0625 -293.4375 367.0625 C-294.84765625 365.69921875 -294.84765625 365.69921875 -296.5 363.75 C-297.11488281 363.02554687 -297.72976563 362.30109375 -298.36328125 361.5546875 C-299.04777344 360.73226563 -299.73226563 359.90984375 -300.4375 359.0625 C-301.60345703 357.67417969 -301.60345703 357.67417969 -302.79296875 356.2578125 C-312.4375 344.64661501 -312.4375 344.64661501 -312.4375 341.0625 C-313.0975 341.0625 -313.7575 341.0625 -314.4375 341.0625 C-315.86363526 338.46315518 -317.27832309 335.8585234 -318.6875 333.25 C-319.08324219 332.53134766 -319.47898437 331.81269531 -319.88671875 331.07226562 C-333.82706918 305.13407261 -334.70020168 273.1525056 -327.4375 245.0625 C-326.09814949 240.8537936 -324.40009009 237.01316835 -322.4375 233.0625 C-321.73488667 231.56539051 -321.03596953 230.06654331 -320.33984375 228.56640625 C-318.39644247 224.38672127 -316.42363077 220.22203938 -314.4375 216.0625 C-313.7775 216.0625 -313.1175 216.0625 -312.4375 216.0625 C-312.21964844 215.22976562 -312.00179688 214.39703125 -311.77734375 213.5390625 C-310.12664571 209.25591014 -307.76934716 206.0625646 -305 202.4375 C-304.50951172 201.78265625 -304.01902344 201.1278125 -303.51367188 200.453125 C-302.57301939 199.19892169 -301.62747303 197.94836869 -300.67626953 196.70214844 C-299.65990314 195.35687515 -298.6817293 193.98282757 -297.71484375 192.6015625 C-297.29332031 192.09367188 -296.87179687 191.58578125 -296.4375 191.0625 C-295.7775 191.0625 -295.1175 191.0625 -294.4375 191.0625 C-294.17324219 190.47984375 -293.90898437 189.8971875 -293.63671875 189.296875 C-292.38967503 186.97339289 -291.01436849 185.26662895 -289.25 183.3125 C-287.3056256 181.14846824 -285.37252903 178.98578729 -283.4921875 176.765625 C-282.87601562 176.03859375 -282.25984375 175.3115625 -281.625 174.5625 C-280.78001953 173.55703125 -280.78001953 173.55703125 -279.91796875 172.53125 C-278.4375 171.0625 -278.4375 171.0625 -276.4375 171.0625 C-276.17324219 170.46920898 -275.90898437 169.87591797 -275.63671875 169.26464844 C-274.39309047 166.98094992 -273.14634775 165.5910341 -271.25 163.828125 C-270.32574219 162.96767578 -270.32574219 162.96767578 -269.3828125 162.08984375 C-268.74085938 161.50332031 -268.09890625 160.91679687 -267.4375 160.3125 C-266.79554688 159.71050781 -266.15359375 159.10851562 -265.4921875 158.48828125 C-260.6950822 154.0625 -260.6950822 154.0625 -258.4375 154.0625 C-258.4375 153.4025 -258.4375 152.7425 -258.4375 152.0625 C-254.99315576 148.81157466 -251.16655471 145.97967192 -247.4375 143.0625 C-246.79474121 142.55686523 -246.15198242 142.05123047 -245.48974609 141.53027344 C-236.78406902 134.70155618 -227.93483813 128.25123934 -218.66796875 122.20703125 C-216.0816985 120.4901481 -213.62636728 118.72698608 -211.1875 116.8125 C-207.42851822 113.90968543 -203.35423859 111.77879149 -199.1640625 109.5625 C-195.85646244 107.7428461 -192.77780799 105.67979097 -189.6640625 103.55078125 C-187.39974176 102.0372616 -185.09432715 100.63597843 -182.75 99.25 C-178.55533235 96.76717491 -174.4607718 94.15599724 -170.375 91.5 C-166.54641181 89.01262067 -162.71346772 86.5965588 -158.6875 84.4375 C-154.48662482 82.18031333 -150.65987326 79.50088068 -146.796875 76.7109375 C-144.40256963 75.03809501 -141.9517429 73.54783734 -139.4375 72.0625 C-131.99614946 67.44224794 -131.99614946 67.44224794 -124.8125 62.4375 C-121.56031151 60.05517397 -118.11041224 58.1575761 -114.55078125 56.2734375 C-112.36346601 55.02007757 -110.44966909 53.5783597 -108.4375 52.0625 C-106.77888641 51.04919909 -105.11175147 50.04974859 -103.4375 49.0625 C-100.75342047 47.37345307 -98.08210111 45.66520596 -95.41015625 43.95703125 C-93.46475551 42.71718978 -91.51439425 41.48508921 -89.55859375 40.26171875 C-84.63312969 37.17217176 -79.86607518 34.01089816 -75.2890625 30.421875 C-73.08904306 28.80667085 -70.78777674 27.44919883 -68.4375 26.0625 C-64.7562828 23.75201246 -61.09941412 21.40342915 -57.4375 19.0625 C-56.22016631 18.29018451 -55.00271425 17.51805557 -53.78515625 16.74609375 C-52.54418218 15.95586837 -51.30329561 15.16550556 -50.0625 14.375 C-49.47992432 14.00681152 -48.89734863 13.63862305 -48.29711914 13.25927734 C-44.832976 11.04561755 -41.63304726 8.64330593 -38.4375 6.0625 C-36.4657696 5.00785351 -34.45987052 4.01644836 -32.4375 3.0625 C-31.77492188 2.63453125 -31.11234375 2.2065625 -30.4296875 1.765625 C-21.59011372 -3.56808392 -9.49283134 -4.30401674 0 0 Z M4.3125 147.6875 C2.36476699 149.83916762 2.36476699 149.83916762 2.5625 152.0625 C1.9025 152.0625 1.2425 152.0625 0.5625 152.0625 C-0.86786407 156.60056156 -1.69627293 159.99044074 -0.5625 164.6875 C3.77212498 171.57190437 9.06093267 175.68864211 17 177.625 C26.43928075 179.23658452 35.69818641 177.90844539 43.84375 172.56640625 C46.80016859 170.13705409 48.33215182 168.75354454 49.5625 165.0625 C50.06722286 158.87964496 50.36100034 153.25378379 46.5625 148.0625 C39.8323706 142.31726758 31.12368969 140.43949407 22.4375 140.7109375 C16.04380021 141.49277579 9.09526512 143.13441569 4.3125 147.6875 Z M-49.4375 191.0625 C-50.03046875 191.40925781 -50.6234375 191.75601563 -51.234375 192.11328125 C-54.60650807 194.19276331 -56.9323193 196.10255082 -57.95703125 200.078125 C-58.67979419 205.59039702 -58.26881438 209.08329195 -55.4375 214.0625 C-51.75205401 218.66930749 -46.26022199 222.0010663 -40.4375 223.0625 C-30.36297768 223.8566628 -21.29250222 223.64276674 -12.4375 218.0625 C-9.99055377 215.43605971 -9.99055377 215.43605971 -9.4375 212.0625 C-8.7775 212.0625 -8.1175 212.0625 -7.4375 212.0625 C-6.26782924 206.00147877 -6.28695364 202.62846523 -9.4375 197.0625 C-12.42737253 193.60054233 -15.42128577 191.22507689 -19.4375 189.0625 C-19.97890625 188.71316406 -20.5203125 188.36382812 -21.078125 188.00390625 C-24.53764058 186.62353662 -27.953419 186.67952264 -31.625 186.6875 C-32.38659424 186.68911133 -33.14818848 186.69072266 -33.93286133 186.69238281 C-39.85479271 186.82140919 -44.3877832 187.84604995 -49.4375 191.0625 Z M59.5625 195.0625 C56.36872963 198.9748687 54.8099242 202.8422891 55.12109375 208.01171875 C56.13436618 212.7194004 58.47468921 216.55785172 62.39453125 219.3828125 C71.62155808 224.29661377 81.71330104 225.58750512 91.8125 222.8125 C98.10308874 220.6827709 102.80799258 218.02658852 105.86328125 211.98046875 C107.4403633 207.65450624 107.42218952 204.07088105 105.64453125 199.91796875 C102.27226961 194.03560944 98.39306755 191.03855778 91.9375 188.8125 C80.8944534 186.47322868 68.39497977 187.49180305 59.5625 195.0625 Z M-1.4375 244.0625 C-3.04427052 248.88281156 -2.96995282 252.69333561 -1.125 257.4375 C0.35409062 260.34136877 0.35409062 260.34136877 3.5625 261.0625 C3.8925 262.0525 4.2225 263.0425 4.5625 264.0625 C12.3770462 269.55380274 22.38149622 268.86383449 31.5625 268.0625 C37.23909426 266.73773254 42.52179157 264.34809985 46.5625 260.0625 C49.37722097 255.27747434 50.05819449 251.51602365 49.19140625 246.1328125 C47.38202127 240.17645199 40.751379 236.88490281 35.5625 234.0625 C21.93070828 229.51856943 7.7345703 233.24416067 -1.4375 244.0625 Z " fill="#5E9C87" transform="translate(331.4375,1.9375)"/>
<path d="M0 0 C1.36125 0.8353125 1.36125 0.8353125 2.75 1.6875 C8.10796467 7.19429702 10.31645807 13.10241951 10.5 20.75 C10.30937237 25.5156908 9.74919986 28.98193866 7 33 C6.34 33.99 5.68 34.98 5 36 C4.34 36 3.68 36 3 36 C3 36.66 3 37.32 3 38 C-7.38963476 47.39631051 -20.78035364 48.84215089 -34.16796875 48.390625 C-40.49647739 47.99904311 -46.17619956 46.49220584 -52 44 C-53.03833984 43.566875 -53.03833984 43.566875 -54.09765625 43.125 C-59.74710501 40.34373292 -64.38611612 35.23849125 -67.17578125 29.640625 C-69.12461084 23.39698139 -69.17076469 15.66376442 -66.5 9.625 C-61.02861566 0.49318247 -51.81547137 -4.14740386 -41.875 -6.75 C-27.03564976 -9.87226791 -12.8052705 -8.34322779 0 0 Z " fill="#5F9C87" transform="translate(205,302)"/>
<path d="M0 0 C3.91425022 1.25118262 7.62963776 2.69012358 11.375 4.375 C19.72365551 7.89790333 28.81531744 10.51672665 37.85546875 11.359375 C41 12 41 12 42.2253418 13.76953125 C43.11152352 16.321109 43.02888603 17.69061368 42.5390625 20.328125 C42.39726562 21.12734375 42.25546875 21.9265625 42.109375 22.75 C41.86960937 23.9875 41.86960937 23.9875 41.625 25.25 C41.47289062 26.09046875 41.32078125 26.9309375 41.1640625 27.796875 C40.78772317 29.86674133 40.39540481 31.93369098 40 34 C39.01 34 38.02 34 37 34 C36.89650183 27.58311325 37.25492456 21.37305598 38 15 C37.030625 14.76925781 36.06125 14.53851563 35.0625 14.30078125 C27.78233376 12.54166733 20.54527713 10.66714862 13.375 8.5 C12.7253125 8.31091064 12.075625 8.12182129 11.40625 7.92700195 C6.97855871 6.55540516 3.63086645 4.81531798 0 2 C0 1.34 0 0.68 0 0 Z " fill="#73A28F" transform="translate(119,369)"/>
<path d="M0 0 C3.19646834 0.57811683 4.80631566 1.44140682 7.05859375 3.765625 C7.60966797 4.32636719 8.16074219 4.88710938 8.72851562 5.46484375 C9.29248047 6.05394531 9.85644531 6.64304687 10.4375 7.25 C10.99759766 7.82363281 11.55769531 8.39726562 12.13476562 8.98828125 C13.23840762 10.11896698 14.3379639 11.25365722 15.43310547 12.39257812 C16.8965992 13.89392477 18.39747601 15.34546924 19.91015625 16.796875 C22 19 22 19 22 21 C22.66 21 23.32 21 24 21 C25.48046875 22.46875 25.48046875 22.46875 27.1875 24.5 C30.29922661 28.17392932 33.48152755 31.7686304 36.71484375 35.3359375 C38 37 38 37 38 39 C37.34 39 36.68 39 36 39 C36 38.34 36 37.68 36 37 C35.41089844 36.74863281 34.82179688 36.49726562 34.21484375 36.23828125 C31.72355798 34.84544599 30.37699586 33.3791428 28.5625 31.1875 C26.55707707 28.81434494 24.57560833 26.57560833 22.375 24.375 C19.69843743 21.69843743 17.32450308 18.98864682 15 16 C15 15.34 15 14.68 15 14 C14.34 14 13.68 14 13 14 C13 13.34 13 12.68 13 12 C12.4225 11.9175 11.845 11.835 11.25 11.75 C7.66808684 10.55602895 5.64742743 8.25677089 3.9375 4.9375 C3.628125 4.298125 3.31875 3.65875 3 3 C1.4587688 1.29078411 1.4587688 1.29078411 0 0 Z " fill="#79A191" transform="translate(350,22)"/>
<path d="M0 0 C0.66 0 1.32 0 2 0 C2.433125 0.7425 2.86625 1.485 3.3125 2.25 C6.46834619 7.39286046 11.24809725 10.35323848 17 12 C20.65672178 12.34644851 24.26875301 12.28529982 27.9375 12.1875 C28.90751953 12.17396484 29.87753906 12.16042969 30.87695312 12.14648438 C33.25189129 12.11138677 35.62564378 12.06222275 38 12 C38.495 12.99 38.495 12.99 39 14 C34.82786381 15.39071206 30.6321943 15.38672073 26.2734375 15.60546875 C22.84435023 15.50681691 22.84435023 15.50681691 20 17 C14.47058824 17.23529412 14.47058824 17.23529412 12 16 C12 15.01 12 14.02 12 13 C10.02 12.34 8.04 11.68 6 11 C6 10.34 6 9.68 6 9 C5.34 9 4.68 9 4 9 C0 3.70588235 0 3.70588235 0 0 Z " fill="#6C9C87" transform="translate(328,257)"/>
<path d="M0 0 C-0.66 1.32 -1.32 2.64 -2 4 C-2.66 4 -3.32 4 -4 4 C-4.268125 4.598125 -4.53625 5.19625 -4.8125 5.8125 C-5.99917406 7.99847854 -7.09599113 9.41332594 -9 11 C-9.66 11 -10.32 11 -11 11 C-11.22816406 11.53625 -11.45632812 12.0725 -11.69140625 12.625 C-13.40497528 15.7349999 -15.63681779 18.3175307 -17.9375 21 C-21.42925527 25.07282931 -21.42925527 25.07282931 -24.62890625 29.375 C-25.08136719 29.91125 -25.53382813 30.4475 -26 31 C-26.99 31 -27.98 31 -29 31 C-27.87548273 28.0280615 -26.77706209 25.66559313 -25 23 C-24.34 23 -23.68 23 -23 23 C-23 22.34 -23 21.68 -23 21 C-22.34 21 -21.68 21 -21 21 C-20.67 20.01 -20.34 19.02 -20 18 C-19.34 18 -18.68 18 -18 18 C-18 17.34 -18 16.68 -18 16 C-17.34 15.67 -16.68 15.34 -16 15 C-15.67 14.01 -15.34 13.02 -15 12 C-12.5625 9.3125 -12.5625 9.3125 -10 7 C-9.34 7 -8.68 7 -8 7 C-8 6.34 -8 5.68 -8 5 C-3.5952381 0 -3.5952381 0 0 0 Z " fill="#7AA090" transform="translate(244,127)"/>
<path d="M0 0 C1.99801607 3.28409538 2.15166527 5.40147728 1.6875 9.1875 C1.58824219 10.06792969 1.48898438 10.94835937 1.38671875 11.85546875 C1 14 1 14 0 15 C-2.73017735 15.35820408 -5.44851411 15.66476788 -8.1875 15.9375 C-16.15846995 16.77209805 -24.07441821 17.80224327 -32 19 C-32 18.34 -32 17.68 -32 17 C-30.2984375 16.5359375 -30.2984375 16.5359375 -28.5625 16.0625 C-25.21224901 15.37075469 -25.21224901 15.37075469 -24 14 C-22.36743242 13.84285346 -20.72864662 13.74914586 -19.08984375 13.68359375 C-17.60581055 13.62075195 -17.60581055 13.62075195 -16.09179688 13.55664062 C-14.53041992 13.49766602 -14.53041992 13.49766602 -12.9375 13.4375 C-11.89271484 13.39431641 -10.84792969 13.35113281 -9.77148438 13.30664062 C-7.18113116 13.20018775 -4.59067814 13.0981724 -2 13 C-1.36889865 9.89839513 -0.81046172 6.83103451 -0.4375 3.6875 C-0.293125 2.470625 -0.14875 1.25375 0 0 Z " fill="#76948A" transform="translate(176,247)"/>
<path d="M0 0 C0.99 0 1.98 0 3 0 C2.25 2.4375 2.25 2.4375 1 5 C-1.125 5.8125 -1.125 5.8125 -3 6 C-3 6.66 -3 7.32 -3 8 C-9.47706677 12.49796304 -15.43015922 12.18259174 -23.0625 12.1875 C-24.06861328 12.19974609 -25.07472656 12.21199219 -26.11132812 12.22460938 C-27.55862305 12.22750977 -27.55862305 12.22750977 -29.03515625 12.23046875 C-30.35592163 12.23663208 -30.35592163 12.23663208 -31.70336914 12.24291992 C-34 12 -34 12 -37 10 C-34.71591749 9.23863916 -33.25576584 8.94734233 -30.875 9.4375 C-21.76552373 11.21978884 -12.42975547 10.00421461 -4.5 5 C-1.82674077 3.06858178 -1.82674077 3.06858178 0 0 Z " fill="#789F90" transform="translate(436,215)"/>
<path d="M0 0 C3.02983954 0.30553004 4.54898362 0.47882552 6.58203125 2.828125 C10.21580372 9.98031209 10.56019407 16.05769293 10 24 C9.01 24.33 8.02 24.66 7 25 C6.97421875 24.0821875 6.9484375 23.164375 6.921875 22.21875 C6.57465941 14.70626731 5.85271785 9.46262349 2 3 C2 2.34 2 1.68 2 1 C1.34 0.67 0.68 0.34 0 0 Z " fill="#719A87" transform="translate(205,305)"/>
<path d="M0 0 C-0.66 1.32 -1.32 2.64 -2 4 C-2 3.34 -2 2.68 -2 2 C-3.93822596 2.03305502 -5.87585668 2.10249905 -7.8125 2.1875 C-8.89144531 2.22230469 -9.97039062 2.25710938 -11.08203125 2.29296875 C-14.2163444 2.7222154 -14.2163444 2.7222154 -15.88671875 5.55078125 C-16.25410156 6.35902344 -16.62148438 7.16726562 -17 8 C-19.31 7.34 -21.62 6.68 -24 6 C-24.33 6.99 -24.66 7.98 -25 9 C-25.99 8.67 -26.98 8.34 -28 8 C-20.65311699 -0.94403149 -10.62767327 -0.50407936 0 0 Z " fill="#60A190" transform="translate(324,0)"/>
<path d="M0 0 C0.99 1.32 1.98 2.64 3 4 C2.34 5.32 1.68 6.64 1 8 C0.34 8 -0.32 8 -1 8 C-1.20625 8.804375 -1.4125 9.60875 -1.625 10.4375 C-3.40897822 15.05962539 -5.8360005 19.17582758 -9 23 C-9.99 23.33 -10.98 23.66 -12 24 C-11.690625 23.278125 -11.38125 22.55625 -11.0625 21.8125 C-9.51510027 17.71644188 -9 14.38872233 -9 10 C-8.34 10.33 -7.68 10.66 -7 11 C-7.33 11.66 -7.66 12.32 -8 13 C-7.34 13 -6.68 13 -6 13 C-6 12.34 -6 11.68 -6 11 C-5.53980469 10.55011719 -5.07960937 10.10023438 -4.60546875 9.63671875 C-2.776296 7.77194167 -2.15739733 6.26672559 -1.3125 3.8125 C-1.06113281 3.09707031 -0.80976563 2.38164062 -0.55078125 1.64453125 C-0.36902344 1.10183594 -0.18726563 0.55914062 0 0 Z " fill="#79A191" transform="translate(225,438)"/>
<path d="M0 0 C3.91425022 1.25118262 7.62963776 2.69012358 11.375 4.375 C18.70118214 7.48447529 26.26380015 9.24266526 34 11 C33.34 11.66 32.68 12.32 32 13 C26.24815103 12.62149123 20.91007203 10.9199796 15.4375 9.1875 C14.61314453 8.93935547 13.78878906 8.69121094 12.93945312 8.43554688 C8.03674095 6.89536631 4.032896 5.22239502 0 2 C0 1.34 0 0.68 0 0 Z " fill="#7DA694" transform="translate(119,369)"/>
<path d="M0 0 C0 0.66 0 1.32 0 2 C-3.93716736 2.79332676 -7.87479439 3.58434958 -11.8125 4.375 C-13.46282227 4.70757812 -13.46282227 4.70757812 -15.14648438 5.046875 C-22.08517562 6.43870687 -29.03223195 7.76179163 -36 9 C-36 8.34 -36 7.68 -36 7 C-28.84224277 4.71387222 -22.51806849 3.55967929 -15 4 C-15 3.34 -15 2.68 -15 2 C-9.77487721 0.53329887 -5.4185766 -0.22577402 0 0 Z " fill="#76978E" transform="translate(352,421)"/>
<path d="M0 0 C0 0.66 0 1.32 0 2 C-6.08374767 5.27586413 -11.55379524 6.38742478 -18.375 6.375 C-19.06464844 6.37628906 -19.75429688 6.37757813 -20.46484375 6.37890625 C-24.11687011 6.3002912 -26.8946064 5.99063692 -30 4 C-30 3.34 -30 2.68 -30 2 C-29.05125 2.165 -28.1025 2.33 -27.125 2.5 C-19.28202236 3.57308346 -12.64531535 3.26226022 -5.12890625 0.65625 C-3 0 -3 0 0 0 Z " fill="#72A18A" transform="translate(374,176)"/>
<path d="M0 0 C2.0625 0.4375 2.0625 0.4375 4 1 C-1.625 4.875 -1.625 4.875 -5 6 C-5.474375 6.680625 -5.94875 7.36125 -6.4375 8.0625 C-6.953125 8.701875 -7.46875 9.34125 -8 10 C-9.32 10 -10.64 10 -12 10 C-12 10.66 -12 11.32 -12 12 C-12.99 12 -13.98 12 -15 12 C-15 12.66 -15 13.32 -15 14 C-16.26418246 14.69965443 -17.53665402 15.38434763 -18.8125 16.0625 C-19.52019531 16.44535156 -20.22789062 16.82820313 -20.95703125 17.22265625 C-23 18 -23 18 -26 17 C-23.89605432 15.64548898 -21.79187634 14.2913417 -19.6875 12.9375 C-19.05755127 12.53208984 -18.42760254 12.12667969 -17.77856445 11.70898438 C-12.8710629 8.55332154 -7.94682164 5.42485686 -3.01171875 2.3125 C-1.08567617 1.15428837 -1.08567617 1.15428837 0 0 Z " fill="#70A293" transform="translate(292,9)"/>
<path d="M0 0 C1.61358398 -0.01836914 1.61358398 -0.01836914 3.25976562 -0.03710938 C4.28650391 -0.03904297 5.31324219 -0.04097656 6.37109375 -0.04296875 C7.79119751 -0.04913208 7.79119751 -0.04913208 9.23999023 -0.05541992 C11.5625 0.1875 11.5625 0.1875 13.5625 2.1875 C2.6725 2.6825 2.6725 2.6825 -8.4375 3.1875 C-9.0975 4.5075 -9.7575 5.8275 -10.4375 7.1875 C-11.4275 6.8575 -12.4175 6.5275 -13.4375 6.1875 C-11.96362651 -2.02408089 -7.51931582 0.00448914 0 0 Z " fill="#6D9881" transform="translate(239.4375,433.8125)"/>
<path d="M0 0 C0.33 0.66 0.66 1.32 1 2 C0.0625 4.125 0.0625 4.125 -1 6 C-1.66 6 -2.32 6 -3 6 C-3.10183594 6.67417969 -3.20367187 7.34835938 -3.30859375 8.04296875 C-4.15401138 11.65868143 -5.5623005 14.9327002 -7.0625 18.3125 C-7.34416016 18.95767578 -7.62582031 19.60285156 -7.91601562 20.26757812 C-8.6062743 21.84698358 -9.30253198 23.42376493 -10 25 C-10.66 24.34 -11.32 23.68 -12 23 C-11.63723355 20.17042171 -10.90305236 17.70915709 -10 15 C-9.34 15 -8.68 15 -8 15 C-7.9175 13.948125 -7.835 12.89625 -7.75 11.8125 C-6.70123265 6.48126599 -3.84054456 3.64851733 0 0 Z " fill="#81A395" transform="translate(200,182)"/>
<path d="M0 0 C0.66 0.66 1.32 1.32 2 2 C-8.11702861 19.41759505 -8.11702861 19.41759505 -15 26 C-14.4739075 22.21213403 -13.61896089 19.82847776 -11 17 C-10.34 17 -9.68 17 -9 17 C-8.58621094 15.92685547 -8.58621094 15.92685547 -8.1640625 14.83203125 C-7.01751478 12.04261145 -5.73772885 9.37709642 -4.375 6.6875 C-3.92898438 5.80449219 -3.48296875 4.92148437 -3.0234375 4.01171875 C-2.68570312 3.34785156 -2.34796875 2.68398438 -2 2 C-1.34 2 -0.68 2 0 2 C0 1.34 0 0.68 0 0 Z " fill="#78978B" transform="translate(497,322)"/>
<path d="M0 0 C0 0.33 0 0.66 0 1 C-0.79921875 0.98839844 -1.5984375 0.97679687 -2.421875 0.96484375 C-9.20774107 0.90909133 -15.79941587 1.1634684 -22.5390625 1.9765625 C-25 2 -25 2 -28 0 C-18.89964122 -2.91211481 -9.00087597 -3.44714399 0 0 Z " fill="#72998B" transform="translate(190,296)"/>
<path d="M0 0 C3.76632472 3.44349689 6.33556173 6.9072275 8.88671875 11.328125 C9.90712963 13.16048447 9.90712963 13.16048447 12 14 C12 14.99 12 15.98 12 17 C14.475 17.99 14.475 17.99 17 19 C17 19.66 17 20.32 17 21 C15.68 21 14.36 21 13 21 C10.93745646 18.78970978 9.16567059 16.6630962 7.375 14.25 C6.88515625 13.61578125 6.3953125 12.9815625 5.890625 12.328125 C0 4.60271516 0 4.60271516 0 0 Z " fill="#6D9A84" transform="translate(20,343)"/>
<path d="M0 0 C0.99 0.33 1.98 0.66 3 1 C0.86290118 4.31618782 -1.2187359 7.2187359 -4 10 C-4 10.66 -4 11.32 -4 12 C-4.66 12 -5.32 12 -6 12 C-6.4021875 13.11375 -6.4021875 13.11375 -6.8125 14.25 C-7.95276751 16.89061949 -9.09380306 18.85552844 -11 21 C-11.66 21 -12.32 21 -13 21 C-12.49615678 16.28298505 -10.51096244 13.63134512 -7.625 9.9375 C-6.83351563 8.91527344 -6.04203125 7.89304688 -5.2265625 6.83984375 C-4.49179687 5.90269531 -3.75703125 4.96554688 -3 4 C-1.99614658 2.66956545 -0.99434572 1.33755537 0 0 Z " fill="#77A493" transform="translate(35,193)"/>
<path d="M0 0 C1 3 1 3 -0.14453125 5.48046875 C-0.69496094 6.37378906 -1.24539062 7.26710937 -1.8125 8.1875 C-2.35519531 9.08855469 -2.89789063 9.98960937 -3.45703125 10.91796875 C-3.96621094 11.60503906 -4.47539062 12.29210937 -5 13 C-5.66 13 -6.32 13 -7 13 C-7.2475 13.969375 -7.495 14.93875 -7.75 15.9375 C-8.1625 16.948125 -8.575 17.95875 -9 19 C-11.125 19.875 -11.125 19.875 -13 20 C-12.67 18.68 -12.34 17.36 -12 16 C-11.34 16 -10.68 16 -10 16 C-9.731875 15.28328125 -9.46375 14.5665625 -9.1875 13.828125 C-7.98716019 10.96942097 -6.59193518 8.40853175 -5 5.75 C-4.484375 4.87859375 -3.96875 4.0071875 -3.4375 3.109375 C-2 1 -2 1 0 0 Z " fill="#709787" transform="translate(213,160)"/>
<path d="M0 0 C1.32 0.33 2.64 0.66 4 1 C3.68289062 1.52078125 3.36578125 2.0415625 3.0390625 2.578125 C1.71079489 5.67408709 1.57635753 8.39404121 1.375 11.75 C1.30023438 12.92046875 1.22546875 14.0909375 1.1484375 15.296875 C1.09945312 16.18890625 1.05046875 17.0809375 1 18 C0.01 17.67 -0.98 17.34 -2 17 C-2.05441656 15.10448978 -2.09298035 13.2085208 -2.125 11.3125 C-2.14820313 10.25675781 -2.17140625 9.20101563 -2.1953125 8.11328125 C-1.99858729 4.97748141 -1.33057654 2.82354627 0 0 Z " fill="#6F9789" transform="translate(139,311)"/>
<path d="M0 0 C1 3 1 3 0.3125 4.9375 C-1.22368758 7.35150906 -2.81739614 9.14809369 -5 11 C-5.99 11 -6.98 11 -8 11 C-8 11.99 -8 12.98 -8 14 C-10.5 16.1875 -10.5 16.1875 -13 18 C-13 13.2638857 -12.22218726 12.62273773 -9.125 9.25 C-8.04605469 8.05117187 -8.04605469 8.05117187 -6.9453125 6.828125 C-5 5 -5 5 -3 5 C-2.690625 4.360625 -2.38125 3.72125 -2.0625 3.0625 C-1 1 -1 1 0 0 Z " fill="#73A296" transform="translate(58,168)"/>
<path d="M0 0 C3.76482152 1.48110561 5.33436705 3.48774681 7.5625 6.8125 C8.43068359 8.09060547 8.43068359 8.09060547 9.31640625 9.39453125 C10.9346203 11.89882074 12.48372523 14.43293299 14 17 C13.34 17.33 12.68 17.66 12 18 C9.20127563 15.47211993 7.54226981 13.79588866 7 10 C6.34 10 5.68 10 5 10 C1.98295115 6.8000997 0.50109958 4.38462134 0 0 Z " fill="#719889" transform="translate(467,155)"/>
<path d="M0 0 C0.66 0.99 1.32 1.98 2 3 C2.66 3 3.32 3 4 3 C4 3.66 4 4.32 4 5 C3.2575 5.433125 2.515 5.86625 1.75 6.3125 C-1.27850095 8.17089831 -2.81744499 10.23543032 -5 13 C-5.99 13.33 -6.98 13.66 -8 14 C-8.33 12.35 -8.66 10.7 -9 9 C-8.071875 8.87625 -8.071875 8.87625 -7.125 8.75 C-4.85973865 8.20746992 -4.85973865 8.20746992 -3.9375 6.1875 C-3.628125 5.465625 -3.31875 4.74375 -3 4 C-2.02418241 2.64886795 -1.02970259 1.31053056 0 0 Z " fill="#5F8E80" transform="translate(250,350)"/>
<path d="M0 0 C1.83203125 0.1328125 1.83203125 0.1328125 4 1 C5.44921875 3.6171875 5.44921875 3.6171875 6.6875 6.875 C7.10386719 7.94492187 7.52023438 9.01484375 7.94921875 10.1171875 C8.66039351 12.06829148 9.34329791 14.02989374 10 16 C9.34 16.33 8.68 16.66 8 17 C5.05506563 15.52753282 4.48818591 13.97637182 3 11 C1.87474205 7.36337089 0.91248352 3.69523469 0 0 Z " fill="#73A48D" transform="translate(87,334)"/>
<path d="M0 0 C6.80828362 2.77374518 11.32038971 9.56517883 16 15 C15.01 15.33 14.02 15.66 13 16 C10.31136831 13.38818636 7.75677779 10.77077847 5.375 7.875 C3.1796886 5.10796907 3.1796886 5.10796907 1.1875 3.25 C0 2 0 2 0 0 Z " fill="#80A294" transform="translate(400,75)"/>
<path d="M0 0 C2.0625 0.4375 2.0625 0.4375 4 1 C3.67 1.33 3.34 1.66 3 2 C2.78778666 4.22529263 2.63058306 6.45592883 2.5 8.6875 C2.23342929 13.19540116 1.81890493 17.55744076 1 22 C0.67 22 0.34 22 0 22 C-1.09472258 17.58635658 -1.14938175 13.26875116 -1.125 8.75 C-1.12886719 8.0178125 -1.13273437 7.285625 -1.13671875 6.53125 C-1.12671034 1.12671034 -1.12671034 1.12671034 0 0 Z " fill="#7FB094" transform="translate(87,311)"/>
<path d="M0 0 C0.33 0 0.66 0 1 0 C0.43866887 8.84096528 -2.1999182 15.55987321 -7 23 C-8 21 -8 21 -7.29296875 18.64453125 C-6.92816406 17.70996094 -6.56335938 16.77539062 -6.1875 15.8125 C-4.57460074 11.57096561 -3.16864497 7.38241863 -2 3 C-1.34 3 -0.68 3 0 3 C0 2.01 0 1.02 0 0 Z " fill="#789B90" transform="translate(507,297)"/>
<path d="M0 0 C0.53625 0.2475 1.0725 0.495 1.625 0.75 C0.325625 1.3996875 0.325625 1.3996875 -1 2.0625 C-5.84938579 5.21460077 -7.92127501 10.70333158 -10.375 15.75 C-10.705 15.75 -11.035 15.75 -11.375 15.75 C-11.66902058 10.75165008 -11.57719742 7.69937682 -8.375 3.75 C-3.30637255 -0.34803922 -3.30637255 -0.34803922 0 0 Z " fill="#729C8B" transform="translate(396.375,192.25)"/>
<path d="M0 0 C7.92 0 15.84 0 24 0 C24 0.66 24 1.32 24 2 C21.21053224 2.92982259 19.50389993 3.12857619 16.62109375 3.1328125 C15.78255859 3.13410156 14.94402344 3.13539063 14.08007812 3.13671875 C13.20802734 3.13285156 12.33597656 3.12898437 11.4375 3.125 C10.12362305 3.13080078 10.12362305 3.13080078 8.78320312 3.13671875 C7.94595703 3.13542969 7.10871094 3.13414062 6.24609375 3.1328125 C5.47966553 3.13168457 4.7132373 3.13055664 3.92358398 3.12939453 C2 3 2 3 0 2 C0 1.34 0 0.68 0 0 Z " fill="#759D8C" transform="translate(288,224)"/>
<path d="M0 0 C-3.26987035 0.22587773 -6.54079281 0.42766605 -9.8125 0.625 C-11.2056543 0.72167969 -11.2056543 0.72167969 -12.62695312 0.8203125 C-13.51962891 0.871875 -14.41230469 0.9234375 -15.33203125 0.9765625 C-16.56530151 1.05511475 -16.56530151 1.05511475 -17.82348633 1.13525391 C-20 1 -20 1 -23 -1 C-18.37858767 -5.62141233 -4.64817675 -3.0987845 0 0 Z " fill="#749D90" transform="translate(425,190)"/>
<path d="M0 0 C0.66 0.33 1.32 0.66 2 1 C0.58163643 6.1576857 -1.67391575 10.79975258 -5 15 C-5.66 15 -6.32 15 -7 15 C-7 15.66 -7 16.32 -7 17 C-7.66 17 -8.32 17 -9 17 C-7.68925635 12.53817564 -5.92933989 9.00381243 -3.375 5.125 C-2.74335938 4.15820312 -2.11171875 3.19140625 -1.4609375 2.1953125 C-0.73777344 1.10863281 -0.73777344 1.10863281 0 0 Z " fill="#76A490" transform="translate(181,436)"/>
<path d="M0 0 C0.99 0 1.98 0 3 0 C1.36538613 5.65827877 1.36538613 5.65827877 -0.5078125 7.41015625 C-2.40115275 9.4274062 -2.60894631 10.92129157 -3.0625 13.625 C-3.47265625 16.0390625 -3.47265625 16.0390625 -4 18 C-4.66 18.33 -5.32 18.66 -6 19 C-7.3058334 15.07871478 -6.38030356 13.02168909 -4.59960938 9.31640625 C-4.25736328 8.63449219 -3.91511719 7.95257813 -3.5625 7.25 C-3.05493164 6.20392578 -3.05493164 6.20392578 -2.53710938 5.13671875 C-1.70193542 3.41931879 -0.85234576 1.70894262 0 0 Z " fill="#759F90" transform="translate(16,220)"/>
<path d="M0 0 C0.33 0.66 0.66 1.32 1 2 C0.67 2.99 0.34 3.98 0 5 C-0.66 5 -1.32 5 -2 5 C-2.33 5.99 -2.66 6.98 -3 8 C-8.25714286 12 -8.25714286 12 -12 12 C-12.33 12.66 -12.66 13.32 -13 14 C-12.70795374 10.80939456 -11.91826641 9.92305144 -9.53125 7.67578125 C-8.5309375 6.89589844 -7.530625 6.11601562 -6.5 5.3125 C-5.4996875 4.52488281 -4.499375 3.73726563 -3.46875 2.92578125 C-2.6540625 2.29027344 -1.839375 1.65476562 -1 1 C-0.67 0.67 -0.34 0.34 0 0 Z " fill="#74A291" transform="translate(157,466)"/>
<path d="M0 0 C2.05710856 3.08566284 2.78346093 5.36985312 3.6875 8.9375 C3.95949219 9.97777344 4.23148437 11.01804688 4.51171875 12.08984375 C4.97828785 14.8705956 4.93894816 16.38480882 4 19 C3.34 18.67 2.68 18.34 2 18 C2.33 16.35 2.66 14.7 3 13 C2.34 13 1.68 13 1 13 C-0.2834998 8.9088444 -1.38021934 5.3091525 -1 1 C-0.67 0.67 -0.34 0.34 0 0 Z " fill="#6F9D90" transform="translate(504,217)"/>
<path d="M0 0 C0.99 0 1.98 0 3 0 C3.8680908 1.91040052 4.71901783 3.82860737 5.5625 5.75 C6.03816406 6.81734375 6.51382812 7.8846875 7.00390625 8.984375 C7.9946154 11.98369837 8.16161779 13.13421241 7 16 C4.43703951 14.71851975 4.40681782 13.84388481 3.5 11.1875 C2.70011602 8.91371812 1.91566473 6.83576815 0.8125 4.6875 C0 3 0 3 0 0 Z " fill="#759F90" transform="translate(494,198)"/>
<path d="M0 0 C0.66 0.33 1.32 0.66 2 1 C0.83236367 4.95199987 -0.46414855 7.7725527 -3 11 C-3 11.66 -3 12.32 -3 13 C-5.5 14.625 -5.5 14.625 -8 16 C-7.43555175 11.65136348 -5.84572036 8.82172345 -3.4375 5.1875 C-2.79683594 4.21167969 -2.15617187 3.23585938 -1.49609375 2.23046875 C-0.75552734 1.12638672 -0.75552734 1.12638672 0 0 Z " fill="#71A38C" transform="translate(277,106)"/>
<path d="M0 0 C1.33333333 0.66666667 2.66666667 1.33333333 4 2 C3.566875 2.8353125 3.566875 2.8353125 3.125 3.6875 C1.9586747 6.08494645 0.9660119 8.51596939 0 11 C-0.66 11 -1.32 11 -2 11 C-1.67 9.02 -1.34 7.04 -1 5 C-2.423125 5.99 -2.423125 5.99 -3.875 7 C-7 9 -7 9 -9 9 C-9 8.34 -9 7.68 -9 7 C-8.34 7 -7.68 7 -7 7 C-7 6.34 -7 5.68 -7 5 C-5.68 4.67 -4.36 4.34 -3 4 C-3 3.34 -3 2.68 -3 2 C-2.01 1.34 -1.02 0.68 0 0 Z " fill="#759E8B" transform="translate(281,94)"/>
<path d="M0 0 C0.66 0.66 1.32 1.32 2 2 C1.09636719 2.55429687 0.19273437 3.10859375 -0.73828125 3.6796875 C-1.92970579 4.41142856 -3.12111103 5.14320104 -4.3125 5.875 C-4.90740234 6.23980469 -5.50230469 6.60460937 -6.11523438 6.98046875 C-8.77362299 8.61411539 -11.40343737 10.26895824 -14 12 C-14.99 12 -15.98 12 -17 12 C-16 9 -16 9 -14.43359375 8.0078125 C-13.44552734 7.57082031 -13.44552734 7.57082031 -12.4375 7.125 C-8.05832429 5.0819126 -4.04926282 2.62771311 0 0 Z " fill="#78998D" transform="translate(438,383)"/>
<path d="M0 0 C0.68707555 2.49064888 1 4.37886292 1 7 C0.34 7 -0.32 7 -1 7 C-2.41377341 9.63904371 -3.37240135 12.07120629 -4 15 C-4.66 15 -5.32 15 -6 15 C-6 14.34 -6 13.68 -6 13 C-6.66 12.67 -7.32 12.34 -8 12 C-7.38125 11.29875 -6.7625 10.5975 -6.125 9.875 C-3.95345733 6.93703051 -3.0966244 4.44653382 -2 1 C-1.34 0.67 -0.68 0.34 0 0 Z " fill="#6EA08A" transform="translate(383,163)"/>
<path d="M0 0 C0.66 0 1.32 0 2 0 C0 5 -2 10 -4 15 C-4.99 14.67 -5.98 14.34 -7 14 C-6.57781184 12.3501725 -6.13675575 10.70516335 -5.6875 9.0625 C-5.44386719 8.14597656 -5.20023437 7.22945313 -4.94921875 6.28515625 C-4.63597656 5.53105469 -4.32273437 4.77695312 -4 4 C-3.01 3.67 -2.02 3.34 -1 3 C-0.67 2.01 -0.34 1.02 0 0 Z " fill="#81A292" transform="translate(96,294)"/>
<path d="M0 0 C-2.63150952 2.63150952 -5.50251118 3.58545919 -8.90625 5 C-11.15192763 5.92971549 -11.15192763 5.92971549 -13 8 C-13.99 8 -14.98 8 -16 8 C-14.57548686 4.442526 -13.01526258 3.03874272 -9.6875 1.1875 C-8.92824219 0.74792969 -8.16898438 0.30835938 -7.38671875 -0.14453125 C-4.51544788 -1.17367744 -2.89117534 -0.83409129 0 0 Z " fill="#739B8C" transform="translate(162,298)"/>
<path d="M0 0 C3 2 3 2 4.4375 5.375 C5.92701897 8.83068402 7.19392502 10.58096984 10 13 C9.67 13.66 9.34 14.32 9 15 C4.36285097 13.53563715 4.36285097 13.53563715 2.6875 11.0625 C2 9 2 9 2 6 C1.34 6 0.68 6 0 6 C0 4.02 0 2.04 0 0 Z " fill="#75A18E" transform="translate(328,161)"/>
<path d="M0 0 C0.99 0.33 1.98 0.66 3 1 C-0.75 4 -0.75 4 -3 4 C-3 4.66 -3 5.32 -3 6 C-4.40751221 6.86916887 -5.8264521 7.71985149 -7.25 8.5625 C-8.03890625 9.03816406 -8.8278125 9.51382813 -9.640625 10.00390625 C-12.30844625 11.13022151 -13.34501768 11.0169313 -16 10 C-4.90566038 2.45283019 -4.90566038 2.45283019 0 0 Z " fill="#6EA187" transform="translate(175,85)"/>
<path d="M0 0 C-0.47276852 4.25491665 -2.92547477 6.22542845 -6 9 C-6.99 9.495 -6.99 9.495 -8 10 C-8 9.34 -8 8.68 -8 8 C-9.32 7.67 -10.64 7.34 -12 7 C-3.55172414 0 -3.55172414 0 0 0 Z " fill="#709B8E" transform="translate(255,35)"/>
<path d="M0 0 C0.99 0.66 1.98 1.32 3 2 C0.06171403 4.50298434 -2.17902761 5.46930939 -6 6 C-6.12375 6.61875 -6.2475 7.2375 -6.375 7.875 C-7 10 -7 10 -9 12 C-9.99 11.67 -10.98 11.34 -12 11 C-8.38748484 6.43951988 -5.01202555 2.98334854 0 0 Z " fill="#729C89" transform="translate(139,480)"/>
<path d="M0 0 C1.305239 3.91571701 0.32239848 5.03892997 -1.4375 8.6875 C-1.91058594 9.68136719 -2.38367188 10.67523438 -2.87109375 11.69921875 C-3.42990234 12.83810547 -3.42990234 12.83810547 -4 14 C-4.99 14 -5.98 14 -7 14 C-6.52309796 12.37433394 -6.04340334 10.74948689 -5.5625 9.125 C-5.16224609 7.76761719 -5.16224609 7.76761719 -4.75390625 6.3828125 C-4 4 -4 4 -3 2 C-2.01 2 -1.02 2 0 2 C0 1.34 0 0.68 0 0 Z " fill="#77A490" transform="translate(189,422)"/>
<path d="M0 0 C0.99 0.99 1.98 1.98 3 3 C2.34 4.98 1.68 6.96 1 9 C0.34 9 -0.32 9 -1 9 C-1.12375 9.928125 -1.2475 10.85625 -1.375 11.8125 C-2 15 -2 15 -4 18 C-5.35814777 13.9255567 -3.94745762 11.18531884 -2.5625 7.3125 C-2.31951172 6.61060547 -2.07652344 5.90871094 -1.82617188 5.18554688 C-1.2255056 3.45421468 -0.61380281 1.72671863 0 0 Z " fill="#72A292" transform="translate(229,188)"/>
<path d="M0 0 C2.87988007 2.79517771 5.67564715 5.65445048 8.375 8.625 C9.16003906 9.47964844 9.16003906 9.47964844 9.9609375 10.3515625 C10.30382812 10.89554688 10.64671875 11.43953125 11 12 C10.67 12.99 10.34 13.98 10 15 C6.20596616 13.73532205 5.93315707 12.38302487 4 9 C3.443125 8.46375 2.88625 7.9275 2.3125 7.375 C1 6 1 6 1 3 C0.34 2.67 -0.32 2.34 -1 2 C-0.67 1.34 -0.34 0.68 0 0 Z " fill="#7BA192" transform="translate(432,109)"/>
<path d="M0 0 C0.66 0 1.32 0 2 0 C1.44712232 3.7381133 0.02221638 5.26300232 -2.8125 7.6875 C-3.49957031 8.28949219 -4.18664062 8.89148438 -4.89453125 9.51171875 C-6.99101007 10.99364534 -8.49199789 11.57730302 -11 12 C-10.34 10.68 -9.68 9.36 -9 8 C-8.34 8 -7.68 8 -7 8 C-6.34 6.68 -5.68 5.36 -5 4 C-4.01 4 -3.02 4 -2 4 C-1.34 2.68 -0.68 1.36 0 0 Z " fill="#78A08D" transform="translate(261,109)"/>
<path d="M0 0 C0.99 0 1.98 0 3 0 C2.85851011 1.6045556 2.71164314 3.20863767 2.5625 4.8125 C2.48128906 5.70582031 2.40007812 6.59914063 2.31640625 7.51953125 C2 10 2 10 1 13 C0.01 13 -0.98 13 -2 13 C-1.85769192 11.58297487 -1.71099254 10.1663904 -1.5625 8.75 C-1.48128906 7.96109375 -1.40007812 7.1721875 -1.31640625 6.359375 C-1.02365007 4.17635361 -0.57935581 2.1226818 0 0 Z " fill="#789D91" transform="translate(193,400)"/>
<path d="M0 0 C1.12272841 3.36818523 0.70327288 5.57154472 0 9 C0.33 9.99 0.66 10.98 1 12 C0.67 12.99 0.34 13.98 0 15 C0.8971875 15.433125 0.8971875 15.433125 1.8125 15.875 C4 17 4 17 7 19 C3.26512223 18.5020163 1.18762365 18.12508244 -2 16 C-3.03870589 10.51607966 -1.7645423 5.18334301 0 0 Z " fill="#6F9081" transform="translate(213,250)"/>
<path d="M0 0 C0.66 0.33 1.32 0.66 2 1 C1.39816251 3.02045442 0.72693904 5.02111039 0 7 C-0.99 7.495 -0.99 7.495 -2 8 C-2.72159424 9.64363134 -3.39351421 11.31050386 -4 13 C-4.66 13 -5.32 13 -6 13 C-6.66 14.32 -7.32 15.64 -8 17 C-7.57045318 11.27270904 -5.15218029 7.60552198 -2 3 C-1.34 2.01 -0.68 1.02 0 0 Z " fill="#7BA290" transform="translate(253,144)"/>
<path d="M0 0 C3.76651128 0.54876323 5.26652261 2.00763849 7.6875 4.875 C8.59048828 5.92300781 8.59048828 5.92300781 9.51171875 6.9921875 C11 9 11 9 12 12 C10.35 11.67 8.7 11.34 7 11 C7 10.01 7 9.02 7 8 C5.68 7.34 4.36 6.68 3 6 C3 5.01 3 4.02 3 3 C2.34 3 1.68 3 1 3 C0.67 2.01 0.34 1.02 0 0 Z " fill="#719B89" transform="translate(388,62)"/>
<path d="M0 0 C-0.54581199 3.79549259 -2.05409295 5.30979295 -4.9375 7.75 C-5.64777344 8.36359375 -6.35804688 8.9771875 -7.08984375 9.609375 C-9 11 -9 11 -11 11 C-10.67 9.68 -10.34 8.36 -10 7 C-9.34 7 -8.68 7 -8 7 C-7.7525 6.401875 -7.505 5.80375 -7.25 5.1875 C-5.55294333 2.21765083 -3.56508774 0 0 0 Z " fill="#73A18B" transform="translate(190,487)"/>
<path d="M0 0 C2.4750171 1.11431765 4.67883419 2.58150978 7 4 C7 4.66 7 5.32 7 6 C8.32 6.33 9.64 6.66 11 7 C11 7.99 11 8.98 11 10 C9.38986415 9.26290216 7.78707609 8.50974143 6.1875 7.75 C5.29417969 7.33234375 4.40085937 6.9146875 3.48046875 6.484375 C0.89071669 4.93460211 -0.38180834 3.51599234 -2 1 C-1.34 0.67 -0.68 0.34 0 0 Z " fill="#719B8B" transform="translate(59,383)"/>
<path d="M0 0 C0.99 0 1.98 0 3 0 C2.34 1.98 1.68 3.96 1 6 C0.34 6 -0.32 6 -1 6 C-1.433125 7.1446875 -1.433125 7.1446875 -1.875 8.3125 C-3 11 -3 11 -5 14 C-5.66 13.67 -6.32 13.34 -7 13 C-6.02325896 11.01963514 -5.04354018 9.04073867 -4.0625 7.0625 C-3.51722656 5.96035156 -2.97195312 4.85820312 -2.41015625 3.72265625 C-1 1 -1 1 0 0 Z " fill="#73A190" transform="translate(257,340)"/>
<path d="M0 0 C0.99 0.33 1.98 0.66 3 1 C2.34 4.63 1.68 8.26 1 12 C0.01 12.33 -0.98 12.66 -2 13 C-2.19294408 8.17639811 -1.75747614 4.50353262 0 0 Z " fill="#7CA28E" transform="translate(181,221)"/>
<path d="M0 0 C0.66 0.33 1.32 0.66 2 1 C2 1.99 2 2.98 2 4 C0.66666667 5.33333333 -0.66666667 6.66666667 -2 8 C-2.7872678 10.1381966 -2.7872678 10.1381966 -3 12 C-3.99 12 -4.98 12 -6 12 C-6.33 10.68 -6.66 9.36 -7 8 C-6.34 8 -5.68 8 -5 8 C-4.67 6.68 -4.34 5.36 -4 4 C-3.34 4 -2.68 4 -2 4 C-2 3.34 -2 2.68 -2 2 C-1.34 2 -0.68 2 0 2 C0 1.34 0 0.68 0 0 Z " fill="#70998B" transform="translate(277,192)"/>
<path d="M0 0 C0 0.66 0 1.32 0 2 C-0.9075 2.391875 -1.815 2.78375 -2.75 3.1875 C-6.15976165 5.08909784 -7.62973284 6.97586604 -10 10 C-10.99 10 -11.98 10 -13 10 C-12.75 8.125 -12.75 8.125 -12 6 C-9.9375 4.75 -9.9375 4.75 -8 4 C-8 3.34 -8 2.68 -8 2 C-5.09399739 0.74335022 -3.20395416 0 0 0 Z " fill="#78A092" transform="translate(344,144)"/>
<path d="M0 0 C3.15277249 3.42692662 3.66643139 6.4134316 4 11 C3.67 11.99 3.34 12.98 3 14 C1.35 14.33 -0.3 14.66 -2 15 C-1.34 14.67 -0.68 14.34 0 14 C0.077357 9.43593679 -0.05115281 5.47313676 -1 1 C-0.67 0.67 -0.34 0.34 0 0 Z " fill="#75A698" transform="translate(324,200)"/>
<path d="M0 0 C6.75767597 1.50170577 9.83727837 3.52899443 14 9 C10.16448215 8.48168678 8.63398068 7.74372987 6 5 C5.13375 4.67 4.2675 4.34 3.375 4 C2.59125 3.67 1.8075 3.34 1 3 C0.67 2.01 0.34 1.02 0 0 Z " fill="#6F9A8D" transform="translate(309,188)"/>
<path d="M0 0 C0.99 0.33 1.98 0.66 3 1 C1.68 4.96 0.36 8.92 -1 13 C-1.66 13 -2.32 13 -3 13 C-3.31563182 7.73946963 -2.66590937 4.55426184 0 0 Z " fill="#719A8E" transform="translate(329,243)"/>
<path d="M0 0 C1.37140038 0.01987537 2.7426453 0.05555764 4.11328125 0.10546875 C4.81517578 0.11900391 5.51707031 0.13253906 6.24023438 0.14648438 C7.96907954 0.18176693 9.6975289 0.23557292 11.42578125 0.29296875 C10.76578125 1.61296875 10.10578125 2.93296875 9.42578125 4.29296875 C9.42578125 3.63296875 9.42578125 2.97296875 9.42578125 2.29296875 C1.50578125 2.78796875 1.50578125 2.78796875 -6.57421875 3.29296875 C-3.57421875 0.29296875 -3.57421875 0.29296875 0 0 Z " fill="#719A89" transform="translate(312.57421875,-0.29296875)"/>
<path d="M0 0 C0.66 0.66 1.32 1.32 2 2 C1.9765625 4.1640625 1.9765625 4.1640625 1.625 6.625 C1.51414063 7.44226563 1.40328125 8.25953125 1.2890625 9.1015625 C1.19367188 9.72804688 1.09828125 10.35453125 1 11 C0.34 11 -0.32 11 -1 11 C-1 11.66 -1 12.32 -1 13 C-1.66 13 -2.32 13 -3 13 C-2.69240822 11.02006459 -2.3787932 9.04106401 -2.0625 7.0625 C-1.88847656 5.96035156 -1.71445313 4.85820312 -1.53515625 3.72265625 C-1 1 -1 1 0 0 Z " fill="#789E90" transform="translate(155,407)"/>
<path d="M0 0 C2.8842454 0.34485543 3.8207818 0.78255407 5.703125 3.06640625 C6.21359375 3.89011719 6.7240625 4.71382812 7.25 5.5625 C8.03117187 6.80193359 8.03117187 6.80193359 8.828125 8.06640625 C9.21484375 8.70449219 9.6015625 9.34257812 10 10 C8.68 10 7.36 10 6 10 C6 9.34 6 8.68 6 8 C5.34 8 4.68 8 4 8 C0 2.58823529 0 2.58823529 0 0 Z " fill="#739E8A" transform="translate(457,143)"/>
<path d="M0 0 C-3.7367843 2.49118953 -5.74451819 2.2065226 -10.1875 2.125 C-11.45980469 2.10695313 -12.73210937 2.08890625 -14.04296875 2.0703125 C-15.50669922 2.03550781 -15.50669922 2.03550781 -17 2 C-17 1.34 -17 0.68 -17 0 C-14.9174133 -0.19561869 -12.83388144 -0.38119313 -10.75 -0.5625 C-9.58984375 -0.66691406 -8.4296875 -0.77132813 -7.234375 -0.87890625 C-4.48128523 -0.98198087 -2.580018 -0.86213473 0 0 Z " fill="#719E8D" transform="translate(367,270)"/>
<path d="M0 0 C0.99 0.33 1.98 0.66 3 1 C2.40075776 5.19469571 1.42500059 9.00999834 0 13 C-0.66 12.67 -1.32 12.34 -2 12 C-1 3.42857143 -1 3.42857143 0 0 Z " fill="#709E89" transform="translate(4,248)"/>
<path d="M0 0 C1.77074917 -0.02705729 3.54161711 -0.04642195 5.3125 -0.0625 C6.29863281 -0.07410156 7.28476562 -0.08570313 8.30078125 -0.09765625 C11 0 11 0 14 1 C14.33 1.99 14.66 2.98 15 4 C14.01 4.495 14.01 4.495 13 5 C11.32332564 4.35891863 9.65910004 3.68528045 8 3 C5.34632682 2.2664243 2.67963737 1.63584616 0 1 C0 0.67 0 0.34 0 0 Z " fill="#6E9A8F" transform="translate(356,233)"/>
<path d="M0 0 C2.5625 2 2.5625 2 5 5 C5.14963532 7.89116824 4.63149193 10.13399816 4 13 C3.34 13 2.68 13 2 13 C1.66127487 11.58461283 1.32925376 10.16762037 1 8.75 C0.814375 7.96109375 0.62875 7.1721875 0.4375 6.359375 C0 4 0 4 0 0 Z " fill="#83A798" transform="translate(379,150)"/>
<path d="M0 0 C0 0.66 0 1.32 0 2 C-7.425 3.485 -7.425 3.485 -15 5 C-15 4.01 -15 3.02 -15 2 C-9.77487721 0.53329887 -5.4185766 -0.22577402 0 0 Z " fill="#6EA299" transform="translate(352,421)"/>
<path d="M0 0 C6.93 0.495 6.93 0.495 14 1 C14 1.99 14 2.98 14 4 C9.71 3.67 5.42 3.34 1 3 C0.67 2.01 0.34 1.02 0 0 Z " fill="#6E9C8D" transform="translate(138,420)"/>
<path d="M0 0 C0.66 0.66 1.32 1.32 2 2 C0.73168307 2.81642254 -0.53975931 3.62799105 -1.8125 4.4375 C-2.87404297 5.11619141 -2.87404297 5.11619141 -3.95703125 5.80859375 C-6 7 -6 7 -9 8 C-9.66 8.66 -10.32 9.32 -11 10 C-11.66 9.34 -12.32 8.68 -13 8 C-8.71 5.36 -4.42 2.72 0 0 Z " fill="#729D89" transform="translate(208,64)"/>
<path d="M0 0 C0.66 0.66 1.32 1.32 2 2 C0.02 4.64 -1.96 7.28 -4 10 C-5.32 9.67 -6.64 9.34 -8 9 C-6.38405168 6.95880212 -4.7143618 4.95927063 -3 3 C-2.34 3 -1.68 3 -1 3 C-0.67 2.01 -0.34 1.02 0 0 Z " fill="#7CA292" transform="translate(205,470)"/>
<path d="M0 0 C5.75762166 1.08896667 11.39247819 2.29336293 17 4 C16.67 4.66 16.34 5.32 16 6 C10.03435204 5.49228528 5.36190101 3.61407872 0 1 C0 0.67 0 0.34 0 0 Z " fill="#759B89" transform="translate(108,411)"/>
<path d="M0 0 C1.65 0 3.3 0 5 0 C5 0.66 5 1.32 5 2 C6.36125 2.2165625 6.36125 2.2165625 7.75 2.4375 C10.21476956 2.86409473 12.58847107 3.35074221 15 4 C15 4.66 15 5.32 15 6 C8.84777564 5.56826496 5.18082051 4.34594658 0 1 C0 0.67 0 0.34 0 0 Z " fill="#759F8F" transform="translate(73,395)"/>
<path d="M0 0 C2.375 -0.125 2.375 -0.125 5 0 C5.66 0.66 6.32 1.32 7 2 C9.31648799 3.03842565 11.64903024 4.0421975 14 5 C14 5.66 14 6.32 14 7 C10.2397015 6.41892368 7.46964968 5.34800504 4.1875 3.4375 C3.39730469 2.98246094 2.60710937 2.52742188 1.79296875 2.05859375 C1.20128906 1.70925781 0.60960937 1.35992187 0 1 C0 0.67 0 0.34 0 0 Z " fill="#6C9181" transform="translate(227,272)"/>
<path d="M0 0 C2.96175123 0.61277612 4.38058783 1.25372522 7 3 C7.6875 6.625 7.6875 6.625 8 10 C7.34 10 6.68 10 6 10 C5.7525 9.05125 5.505 8.1025 5.25 7.125 C4.3142923 3.91306809 4.3142923 3.91306809 1.875 2.625 C1.25625 2.41875 0.6375 2.2125 0 2 C0 1.34 0 0.68 0 0 Z " fill="#70A191" transform="translate(374,239)"/>
<path d="M0 0 C0.99 0 1.98 0 3 0 C2.40049704 3.68266103 1.75241109 7.34543185 1 11 C0.34 11 -0.32 11 -1 11 C-2.60080151 6.99799622 -1.29279692 3.95443764 0 0 Z " fill="#75A38B" transform="translate(220,213)"/>
<path d="M0 0 C0.33 0.66 0.66 1.32 1 2 C0.0625 4.125 0.0625 4.125 -1 6 C-1.66 6 -2.32 6 -3 6 C-3.12375 6.78375 -3.2475 7.5675 -3.375 8.375 C-4 11 -4 11 -6 13 C-6.75 10.8125 -6.75 10.8125 -7 8 C-4.99264944 4.98897417 -2.61878091 2.48784187 0 0 Z " fill="#779D8D" transform="translate(200,182)"/>
<path d="M0 0 C0.33 0.66 0.66 1.32 1 2 C-2.95705456 3.45839897 -6.69831388 2.67906093 -10.75 2.0625 C-11.79607422 1.91264648 -11.79607422 1.91264648 -12.86328125 1.75976562 C-14.57651726 1.51334127 -16.28840725 1.25759045 -18 1 C-18 0.67 -18 0.34 -18 0 C-5.93188582 -1.41849443 -5.93188582 -1.41849443 0 0 Z " fill="#65907E" transform="translate(369,142)"/>
<path d="M0 0 C1.75763672 0.45246094 1.75763672 0.45246094 3.55078125 0.9140625 C4.73027344 1.21054687 5.90976563 1.50703125 7.125 1.8125 C8.02863281 2.05226563 8.93226563 2.29203125 9.86328125 2.5390625 C9.20328125 3.1990625 8.54328125 3.8590625 7.86328125 4.5390625 C2.98835902 4.15671566 -1.48684611 2.9624929 -6.13671875 1.5390625 C-3.13671875 -0.4609375 -3.13671875 -0.4609375 0 0 Z " fill="#8DAD9F" transform="translate(143.13671875,377.4609375)"/>
<path d="M0 0 C0.66 0 1.32 0 2 0 C2 4.29 2 8.58 2 13 C1.01 13.33 0.02 13.66 -1 14 C-0.67 9.38 -0.34 4.76 0 0 Z " fill="#85A197" transform="translate(213,316)"/>
<path d="M0 0 C-1 3 -1 3 -3.50390625 4.38671875 C-4.51324219 4.81597656 -5.52257812 5.24523437 -6.5625 5.6875 C-7.57441406 6.12449219 -8.58632813 6.56148438 -9.62890625 7.01171875 C-10.41136719 7.33785156 -11.19382812 7.66398437 -12 8 C-12.33 7.34 -12.66 6.68 -13 6 C-12.01 6 -11.02 6 -10 6 C-9.67 5.01 -9.34 4.02 -9 3 C-2.88888889 0 -2.88888889 0 0 0 Z " fill="#779991" transform="translate(417,396)"/>
<path d="M0 0 C2.97 0.495 2.97 0.495 6 1 C6 1.66 6 2.32 6 3 C6.804375 3.268125 7.60875 3.53625 8.4375 3.8125 C9.283125 4.204375 10.12875 4.59625 11 5 C11.33 5.99 11.66 6.98 12 8 C11.1646875 7.566875 11.1646875 7.566875 10.3125 7.125 C7.91505355 5.9586747 5.48403061 4.9660119 3 4 C3 3.34 3 2.68 3 2 C2.01 1.67 1.02 1.34 0 1 C0 0.67 0 0.34 0 0 Z " fill="#80AC9D" transform="translate(106,362)"/>
<path d="M0 0 C3.33135891 0.59699131 5.21275667 1.72012281 7.75 3.9375 C8.36359375 4.46214844 8.9771875 4.98679687 9.609375 5.52734375 C11 7 11 7 11 9 C7.65980694 8.40353695 5.49529367 7.31705841 3 5 C3 4.01 3 3.02 3 2 C2.01 1.67 1.02 1.34 0 1 C0 0.67 0 0.34 0 0 Z " fill="#80A191" transform="translate(333,5)"/>
<path d="M0 0 C1.32 0 2.64 0 4 0 C4.33 3.63 4.66 7.26 5 11 C4.67 10.01 4.34 9.02 4 8 C3.34 8 2.68 8 2 8 C1.34 5.36 0.68 2.72 0 0 Z " fill="#74A38D" transform="translate(436,200)"/>
<path d="M0 0 C3.78099386 0.3911373 5.59391036 2.1642515 8 5 C8 5.66 8 6.32 8 7 C4 7 4 7 2.515625 5.6875 C1.34375 4.125 0.171875 2.5625 -1 1 C-0.67 0.67 -0.34 0.34 0 0 Z " fill="#699082" transform="translate(431,193)"/>
<path d="M0 0 C0 0.99 0 1.98 0 3 C-4.34285714 7 -4.34285714 7 -7 7 C-7.33 7.99 -7.66 8.98 -8 10 C-8.99 9.34 -9.98 8.68 -11 8 C-9.72992786 7.0406581 -8.45891081 6.08256706 -7.1875 5.125 C-6.47980469 4.59132812 -5.77210937 4.05765625 -5.04296875 3.5078125 C-3.39543703 2.29185219 -1.70375789 1.13583859 0 0 Z " fill="#74A290" transform="translate(72,157)"/>
<path d="M0 0 C0.99 0.33 1.98 0.66 3 1 C2.01 1.33 1.02 1.66 0 2 C-0.71727778 3.64551962 -1.38325228 5.31422289 -2 7 C-2.66 7.66 -3.32 8.32 -4 9 C-4 8.34 -4 7.68 -4 7 C-4.66 6.67 -5.32 6.34 -6 6 C-2.25 1.125 -2.25 1.125 0 0 Z " fill="#80A695" transform="translate(202,380)"/>
<path d="M0 0 C0.66 0.66 1.32 1.32 2 2 C0.56705502 2.84114171 -0.87154405 3.67265687 -2.3125 4.5 C-3.51326172 5.19609375 -3.51326172 5.19609375 -4.73828125 5.90625 C-7 7 -7 7 -10 7 C-9 4 -9 4 -6.93359375 2.83203125 C-6.10988281 2.49558594 -5.28617188 2.15914063 -4.4375 1.8125 C-3.61121094 1.46832031 -2.78492188 1.12414062 -1.93359375 0.76953125 C-1.29550781 0.51558594 -0.65742188 0.26164062 0 0 Z " fill="#77A18E" transform="translate(222,372)"/>
<path d="M0 0 C0.66 0 1.32 0 2 0 C1.67 1.32 1.34 2.64 1 4 C0.34 4 -0.32 4 -1 4 C-1.268125 4.61875 -1.53625 5.2375 -1.8125 5.875 C-3 8 -3 8 -6 10 C-5.38722388 7.03824877 -4.74627478 5.61941217 -3 3 C-2.34 3 -1.68 3 -1 3 C-0.67 2.01 -0.34 1.02 0 0 Z " fill="#6F9F88" transform="translate(476,351)"/>
<path d="M0 0 C0.66 0.66 1.32 1.32 2 2 C-2.95 4.97 -2.95 4.97 -8 8 C-8.33 7.01 -8.66 6.02 -9 5 C-6.03 3.35 -3.06 1.7 0 0 Z " fill="#7CA090" transform="translate(118,275)"/>
<path d="M0 0 C0.66 0.66 1.32 1.32 2 2 C-0.85276137 4.93200474 -3.65079784 7.64315404 -7 10 C-7.66 9.67 -8.32 9.34 -9 9 C-6.19195732 6.03595495 -3.81684226 3.55500981 0 2 C0 1.34 0 0.68 0 0 Z " fill="#6F9C88" transform="translate(378,260)"/>
<path d="M0 0 C0.99 0.33 1.98 0.66 3 1 C1.515 6.445 1.515 6.445 0 12 C-0.66 12 -1.32 12 -2 12 C-1.34 8.04 -0.68 4.08 0 0 Z " fill="#7B9F8E" transform="translate(185,208)"/>
<path d="M0 0 C0.33 0.99 0.66 1.98 1 3 C-1.64 4.98 -4.28 6.96 -7 9 C-7.66 8.67 -8.32 8.34 -9 8 C-6.14723863 5.06799526 -3.34920216 2.35684596 0 0 Z " fill="#80AD9D" transform="translate(114,123)"/>
<path d="M0 0 C0.33 0.66 0.66 1.32 1 2 C1.66 2.33 2.32 2.66 3 3 C2.34 3 1.68 3 1 3 C1 3.66 1 4.32 1 5 C-0.8125 6.6875 -0.8125 6.6875 -3 8 C-3.99 7.67 -4.98 7.34 -6 7 C-4.02 4.69 -2.04 2.38 0 0 Z " fill="#75A293" transform="translate(168,455)"/>
<path d="M0 0 C2.37948772 0.17625835 3.70225849 0.69719773 5.37890625 2.40234375 C6.62115486 3.90649092 7.81376056 5.45129851 9 7 C5.36891547 6.69740962 4.21859619 6.2363202 1.6875 3.5 C0 1 0 1 0 0 Z " fill="#7CA791" transform="translate(98,354)"/>
<path d="M0 0 C1.32 0.33 2.64 0.66 4 1 C2.68 3.31 1.36 5.62 0 8 C-0.66 8 -1.32 8 -2 8 C-1.125 2.25 -1.125 2.25 0 0 Z " fill="#76A489" transform="translate(210,330)"/>
<path d="M0 0 C0.680625 0.5775 1.36125 1.155 2.0625 1.75 C5.25896365 4.19835514 8.47463438 6.06450515 12 8 C9.41741772 8.95651196 8.1349601 9.03620881 5.4375 8.3125 C2.72689824 6.8529452 1.52851882 5.65479585 0 3 C0 2.01 0 1.02 0 0 Z " fill="#7EA590" transform="translate(275,215)"/>
<path d="M0 0 C3.36179774 1.44077046 5.59156268 3.24750021 8 6 C8 6.66 8 7.32 8 8 C4.82461668 7.65978036 3.97723135 6.97533396 1.75 4.5625 C0 2 0 2 0 0 Z " fill="#769A8A" transform="translate(400,75)"/>
<path d="M0 0 C3.63 0.33 7.26 0.66 11 1 C10.67 1.99 10.34 2.98 10 4 C8.51882199 3.71872579 7.04006751 3.42466268 5.5625 3.125 C4.73878906 2.96257812 3.91507813 2.80015625 3.06640625 2.6328125 C2.38449219 2.42398437 1.70257813 2.21515625 1 2 C0.67 1.34 0.34 0.68 0 0 Z " fill="#658C7A" transform="translate(125,417)"/>
<path d="M0 0 C-1.41396902 0.50757862 -2.83131729 1.00574925 -4.25 1.5 C-5.43335938 1.91765625 -5.43335938 1.91765625 -6.640625 2.34375 C-9 3 -9 3 -13 3 C-13 2.34 -13 1.68 -13 1 C-11.59054634 0.43983252 -10.1719969 -0.09748502 -8.75 -0.625 C-7.96109375 -0.92664063 -7.1721875 -1.22828125 -6.359375 -1.5390625 C-3.50082285 -2.09752136 -2.41040161 -1.53690745 0 0 Z " fill="#7BA298" transform="translate(375,416)"/>
<path d="M0 0 C3.78520613 0.54074373 5.59177555 2.07572746 8 5 C8 5.99 8 6.98 8 8 C6.68 7.34 5.36 6.68 4 6 C4 5.34 4 4.68 4 4 C3.34 4 2.68 4 2 4 C1.34 2.68 0.68 1.36 0 0 Z " fill="#7EA391" transform="translate(36,365)"/>
<path d="M0 0 C1.07765625 0.00902344 2.1553125 0.01804688 3.265625 0.02734375 C4.08546875 0.03894531 4.9053125 0.05054688 5.75 0.0625 C5.75 0.3925 5.75 0.7225 5.75 1.0625 C2.12 1.0625 -1.51 1.0625 -5.25 1.0625 C-5.25 1.7225 -5.25 2.3825 -5.25 3.0625 C-7.23 3.3925 -9.21 3.7225 -11.25 4.0625 C-10.92 3.0725 -10.59 2.0825 -10.25 1.0625 C-6.95298938 -0.28557677 -3.5145039 -0.03820113 0 0 Z " fill="#71A08C" transform="translate(356.25,140.9375)"/>
<path d="M0 0 C2.49388574 4.98777148 1.88836125 6.66983248 1 12 C0.01 11.67 -0.98 11.34 -2 11 C-1.34 7.37 -0.68 3.74 0 0 Z " fill="#81A096" transform="translate(158,391)"/>
<path d="M0 0 C2.0625 0.4375 2.0625 0.4375 4 1 C3.1875 3.9375 3.1875 3.9375 2 7 C1.01 7.33 0.02 7.66 -1 8 C-1.04241723 5.66705225 -1.04092937 3.33297433 -1 1 C-0.67 0.67 -0.34 0.34 0 0 Z " fill="#6DAA91" transform="translate(87,311)"/>
<path d="M0 0 C1.72526042 1.07421875 3.45052083 2.1484375 5.17578125 3.22265625 C2.16546381 4.1568927 1.30927857 4.26715536 -1.82421875 3.22265625 C-1.82421875 2.56265625 -1.82421875 1.90265625 -1.82421875 1.22265625 C-2.48421875 1.22265625 -3.14421875 1.22265625 -3.82421875 1.22265625 C-3.82421875 1.88265625 -3.82421875 2.54265625 -3.82421875 3.22265625 C-4.48421875 3.22265625 -5.14421875 3.22265625 -5.82421875 3.22265625 C-5.49421875 2.23265625 -5.16421875 1.24265625 -4.82421875 0.22265625 C-1.82421875 -0.77734375 -1.82421875 -0.77734375 0 0 Z " fill="#69A69B" transform="translate(202.82421875,300.77734375)"/>
<path d="M0 0 C0.99 0.33 1.98 0.66 3 1 C1.75 3.9375 1.75 3.9375 0 7 C-1.32 7.33 -2.64 7.66 -4 8 C-2.68 5.36 -1.36 2.72 0 0 Z " fill="#71A38D" transform="translate(241,164)"/>
<path d="M0 0 C0.33 0.66 0.66 1.32 1 2 C-3.625 6.875 -3.625 6.875 -7 8 C-6.875 6.25 -6.875 6.25 -6 4 C-2.9375 1.75 -2.9375 1.75 0 0 Z " fill="#77AE9B" transform="translate(142,105)"/>
<path d="M0 0 C2.3125 0.1875 2.3125 0.1875 5 1 C6.8125 3.5625 6.8125 3.5625 8 6 C7.01 6.33 6.02 6.66 5 7 C4.01 6.34 3.02 5.68 2 5 C2 3.68 2 2.36 2 1 C1.34 0.67 0.68 0.34 0 0 Z " fill="#78A899" transform="translate(414,92)"/>
<path d="M0 0 C0.33 0.99 0.66 1.98 1 3 C-4.41538462 7.06153846 -4.41538462 7.06153846 -7.375 6.75 C-7.91125 6.5025 -8.4475 6.255 -9 6 C-6.11964908 3.75972706 -3.15133488 1.83827868 0 0 Z " fill="#76A78C" transform="translate(192,74)"/>
<path d="M0 0 C3.63 0.33 7.26 0.66 11 1 C11 1.66 11 2.32 11 3 C9.54176788 3.0270043 8.08339325 3.04639787 6.625 3.0625 C5.81289063 3.07410156 5.00078125 3.08570313 4.1640625 3.09765625 C2 3 2 3 0 2 C0 1.34 0 0.68 0 0 Z " fill="#7DA591" transform="translate(288,224)"/>
<path d="M0 0 C3.82946843 1.45255699 5.12050295 3.42895561 7 7 C6.01 7.495 6.01 7.495 5 8 C2.20127563 5.47211993 0.54226981 3.79588866 0 0 Z " fill="#81AA9B" transform="translate(474,165)"/>
<path d="M0 0 C1.258125 0.12375 2.51625 0.2475 3.8125 0.375 C4.87404297 0.47941406 4.87404297 0.47941406 5.95703125 0.5859375 C8 1 8 1 11 3 C10.67 3.99 10.34 4.98 10 6 C6.7 4.35 3.4 2.7 0 1 C0 0.67 0 0.34 0 0 Z " fill="#769C8A" transform="translate(367,144)"/>
<path d="M0 0 C-0.1875 1.8125 -0.1875 1.8125 -1 4 C-3.4375 5.8125 -3.4375 5.8125 -6 7 C-6.66 6.67 -7.32 6.34 -8 6 C-8 5.34 -8 4.68 -8 4 C-2.58823529 0 -2.58823529 0 0 0 Z " fill="#709F91" transform="translate(242,43)"/>
<path d="M0 0 C0.66 0 1.32 0 2 0 C2 0.99 2 1.98 2 3 C4.475 3.99 4.475 3.99 7 5 C7 5.66 7 6.32 7 7 C5.68 7 4.36 7 3 7 C0.75 4 0.75 4 -1 1 C-0.67 0.67 -0.34 0.34 0 0 Z " fill="#749F8F" transform="translate(30,357)"/>
<path d="M0 0 C0.66 0.66 1.32 1.32 2 2 C-3.75 7 -3.75 7 -6 7 C-5.8125 5.1875 -5.8125 5.1875 -5 3 C-2.4375 1.25 -2.4375 1.25 0 0 Z " fill="#829F95" transform="translate(205,338)"/>
<path d="M0 0 C0.66 0.66 1.32 1.32 2 2 C0.68 3.65 -0.64 5.3 -2 7 C-2.99 6.67 -3.98 6.34 -5 6 C-4.34 4.35 -3.68 2.7 -3 1 C-2.67 1.66 -2.34 2.32 -2 3 C-1.34 3 -0.68 3 0 3 C0 2.01 0 1.02 0 0 Z " fill="#618678" transform="translate(262,333)"/>
<path d="M0 0 C1.231394 3.69418201 0.64432764 6.2056261 0 10 C-0.99 10 -1.98 10 -3 10 C-2.88637738 8.5199159 -2.75877092 7.04089926 -2.625 5.5625 C-2.55539063 4.73878906 -2.48578125 3.91507813 -2.4140625 3.06640625 C-2.27742187 2.38449219 -2.14078125 1.70257813 -2 1 C-1.34 0.67 -0.68 0.34 0 0 Z " fill="#619B73" transform="translate(215,242)"/>
<path d="M0 0 C0.99 0 1.98 0 3 0 C3.33 2.31 3.66 4.62 4 7 C3.01 7.33 2.02 7.66 1 8 C0.67 5.36 0.34 2.72 0 0 Z " fill="#79A292" transform="translate(270,205)"/>
<path d="M0 0 C4.20626034 1.50223584 5.73900021 4.28550034 8 8 C6.68 8 5.36 8 4 8 C2.375 5.625 2.375 5.625 1 3 C0.34 2.34 -0.32 1.68 -1 1 C-0.67 0.67 -0.34 0.34 0 0 Z " fill="#83A397" transform="translate(422,99)"/>
<path d="M0 0 C0.5775 0.226875 1.155 0.45375 1.75 0.6875 C-1.90333143 3.32129708 -4.73521602 5.15634894 -9.25 5.6875 C-3.38551402 -0.47021028 -3.38551402 -0.47021028 0 0 Z " fill="#6F988A" transform="translate(294.25,9.3125)"/>
<path d="M0 0 C0 0.66 0 1.32 0 2 C-4.455 3.485 -4.455 3.485 -9 5 C-8.67 4.01 -8.34 3.02 -8 2 C-5.10441559 0.5522078 -3.25811062 0 0 0 Z " fill="#819E95" transform="translate(403,403)"/>
<path d="M0 0 C0.66 0.33 1.32 0.66 2 1 C1.67 3.31 1.34 5.62 1 8 C0.34 8 -0.32 8 -1 8 C-1.33 8.66 -1.66 9.32 -2 10 C-2.33 9.34 -2.66 8.68 -3 8 C-2.67 7.01 -2.34 6.02 -2 5 C-1.34 5 -0.68 5 0 5 C0 3.35 0 1.7 0 0 Z " fill="#72A58E" transform="translate(382,250)"/>
<path d="M0 0 C0.33 0.99 0.66 1.98 1 3 C-0.4375 5.6875 -0.4375 5.6875 -2 8 C-2.99 7.67 -3.98 7.34 -5 7 C-4.67 6.01 -4.34 5.02 -4 4 C-3.34 4 -2.68 4 -2 4 C-1.34 2.68 -0.68 1.36 0 0 Z " fill="#78A18F" transform="translate(205,172)"/>
<path d="M0 0 C0.99 0.33 1.98 0.66 3 1 C2.67 2.98 2.34 4.96 2 7 C1.01 7 0.02 7 -1 7 C-0.67 4.69 -0.34 2.38 0 0 Z " fill="#6F978C" transform="translate(192,406)"/>
<path d="M0 0 C1.32 0.33 2.64 0.66 4 1 C1.03 3.475 1.03 3.475 -2 6 C-2.66 5.67 -3.32 5.34 -4 5 C-4 4.34 -4 3.68 -4 3 C-2.68 2.67 -1.36 2.34 0 2 C0 1.34 0 0.68 0 0 Z " fill="#6B9282" transform="translate(245,356)"/>
<path d="M0 0 C0.66 0.66 1.32 1.32 2 2 C0.68 4.31 -0.64 6.62 -2 9 C-2.33 9 -2.66 9 -3 9 C-2.67 6.69 -2.34 4.38 -2 2 C-1.34 2 -0.68 2 0 2 C0 1.34 0 0.68 0 0 Z " fill="#71A198" transform="translate(497,322)"/>
<path d="M0 0 C2.02350324 3.03525486 2.32124018 4.19426202 2.625 7.6875 C2.69976562 8.49574219 2.77453125 9.30398437 2.8515625 10.13671875 C2.90054687 10.75160156 2.94953125 11.36648437 3 12 C2.01 11.67 1.02 11.34 0 11 C0 7.37 0 3.74 0 0 Z " fill="#7A988B" transform="translate(506,224)"/>
<path d="M0 0 C0.99 0 1.98 0 3 0 C3.99 2.31 4.98 4.62 6 7 C5.01 7 4.02 7 3 7 C3 6.01 3 5.02 3 4 C2.01 3.67 1.02 3.34 0 3 C0 2.01 0 1.02 0 0 Z " fill="#7CA093" transform="translate(485,182)"/>
<path d="M0 0 C1.25541557 3.76624671 0.37061958 5.37188934 -1 9 C-2.32 8.67 -3.64 8.34 -5 8 C-4.34 8 -3.68 8 -3 8 C-2.87625 7.236875 -2.7525 6.47375 -2.625 5.6875 C-2 3 -2 3 0 0 Z " fill="#75A18F" transform="translate(237,173)"/>
<path d="M0 0 C1 3 1 3 0.25 5.125 C-1 7 -1 7 -4 8 C-4.33 7.01 -4.66 6.02 -5 5 C-4.34 5 -3.68 5 -3 5 C-2.5359375 4.0409375 -2.5359375 4.0409375 -2.0625 3.0625 C-1 1 -1 1 0 0 Z " fill="#81AD9F" transform="translate(58,168)"/>
<path d="M0 0 C1.0625 1.875 1.0625 1.875 2 4 C1.67 4.66 1.34 5.32 1 6 C0.34 6 -0.32 6 -1 6 C-1.66 7.32 -2.32 8.64 -3 10 C-2.49287967 6.28111761 -1.88391785 3.26545761 0 0 Z " fill="#70A389" transform="translate(248,151)"/>
<path d="M0 0 C0.66 0 1.32 0 2 0 C0.66666667 3.33333333 -0.66666667 6.66666667 -2 10 C-2.99 9.01 -3.98 8.02 -5 7 C-4.34 7 -3.68 7 -3 7 C-2.690625 6.21625 -2.38125 5.4325 -2.0625 4.625 C-1 2 -1 2 0 0 Z " fill="#70A693" transform="translate(264,126)"/>
<path d="M0 0 C0.33 0.99 0.66 1.98 1 3 C-2.625 6 -2.625 6 -6 6 C-4.75453595 2.26360784 -3.36595047 1.81243487 0 0 Z " fill="#6E9E89" transform="translate(219,57)"/>
<path d="M0 0 C0.66 0.33 1.32 0.66 2 1 C-2.39453125 5.00390625 -2.39453125 5.00390625 -4 6 C-4.99 5.67 -5.98 5.34 -7 5 C-4.63707344 2.47411298 -3.33537489 1.11179163 0 0 Z " fill="#7A9E92" transform="translate(177,498)"/>
<path d="M0 0 C1.74627478 2.61941217 2.38722388 4.03824877 3 7 C2.01 7.66 1.02 8.32 0 9 C-1.15941038 5.52176885 -0.70820884 3.54104422 0 0 Z " fill="#608979" transform="translate(467,355)"/>
<path d="M0 0 C0.99 0.33 1.98 0.66 3 1 C1.35 3.64 -0.3 6.28 -2 9 C-2.33 8.34 -2.66 7.68 -3 7 C-2.06421005 4.64018187 -1.06652192 2.30368736 0 0 Z " fill="#77A49A" transform="translate(502,311)"/>
<path d="M0 0 C0.66 0 1.32 0 2 0 C2.66 1.98 3.32 3.96 4 6 C3.01 6.33 2.02 6.66 1 7 C0.34 5.02 -0.32 3.04 -1 1 C-0.67 0.67 -0.34 0.34 0 0 Z " fill="#6F9C85" transform="translate(256,293)"/>
<path d="M0 0 C1.80411967 2.75924185 2.0127245 3.88972103 1.625 7.25 C1.41875 8.1575 1.2125 9.065 1 10 C0.34 10 -0.32 10 -1 10 C-1.125 2.25 -1.125 2.25 0 0 Z " fill="#7FA78D" transform="translate(178,235)"/>
<path d="M0 0 C0.66 0.33 1.32 0.66 2 1 C1.45276317 4.37462715 0.9451 6.08235 -1 9 C-1.66 8.67 -2.32 8.34 -3 8 C-2.01 5.36 -1.02 2.72 0 0 Z " fill="#7AA395" transform="translate(217,229)"/>
<path d="M0 0 C0.99 0.66 1.98 1.32 3 2 C1.02 2.33 -0.96 2.66 -3 3 C-3.33 3.99 -3.66 4.98 -4 6 C-4.99 5.67 -5.98 5.34 -7 5 C-4.63707344 2.47411298 -3.33537489 1.11179163 0 0 Z " fill="#739B8F" transform="translate(303,3)"/>
<path d="M0 0 C0.66 0.33 1.32 0.66 2 1 C1.25 2.9375 1.25 2.9375 0 5 C-2.125 5.75 -2.125 5.75 -4 6 C-1.125 1.125 -1.125 1.125 0 0 Z " fill="#83A799" transform="translate(131,486)"/>
<path d="M0 0 C1.65 1.65 3.3 3.3 5 5 C4.01 5.495 4.01 5.495 3 6 C1.35 4.35 -0.3 2.7 -2 1 C-1.34 0.67 -0.68 0.34 0 0 Z " fill="#7CA89B" transform="translate(59,383)"/>
<path d="M0 0 C1.32 0 2.64 0 4 0 C4.66 1.65 5.32 3.3 6 5 C5.01 5.495 5.01 5.495 4 6 C1.2160817 4.60804085 1.02101003 2.84424221 0 0 Z " fill="#7FA894" transform="translate(91,345)"/>
<path d="M0 0 C1.98 0.66 3.96 1.32 6 2 C6.33 3.65 6.66 5.3 7 7 C6.34 6.67 5.68 6.34 5 6 C5 5.34 5 4.68 5 4 C4.360625 3.71125 3.72125 3.4225 3.0625 3.125 C1 2 1 2 0 0 Z " fill="#75938B" transform="translate(247,286)"/>
<path d="M0 0 C2.64 0.33 5.28 0.66 8 1 C8 1.66 8 2.32 8 3 C5.03 2.67 2.06 2.34 -1 2 C-0.67 1.34 -0.34 0.68 0 0 Z " fill="#7EA897" transform="translate(400,224)"/>
<path d="M0 0 C0.66 0.33 1.32 0.66 2 1 C0.7260411 3.03833424 -0.61061923 5.03852126 -2 7 C-2.66 7 -3.32 7 -4 7 C-3.67 5.35 -3.34 3.7 -3 2 C-2.01 2 -1.02 2 0 2 C0 1.34 0 0.68 0 0 Z " fill="#6CA18D" transform="translate(26,207)"/>
<path d="M0 0 C0.66 0 1.32 0 2 0 C2 2.31 2 4.62 2 7 C0.68 6.67 -0.64 6.34 -2 6 C-1.34 4.02 -0.68 2.04 0 0 Z " fill="#6A9385" transform="translate(438,208)"/>
<path d="M0 0 C0.66 0 1.32 0 2 0 C1.67 1.98 1.34 3.96 1 6 C0.01 6 -0.98 6 -2 6 C-1.125 1.125 -1.125 1.125 0 0 Z " fill="#6AA282" transform="translate(330,154)"/>
<path d="M0 0 C0.66 0 1.32 0 2 0 C2.99 1.98 3.98 3.96 5 6 C4.01 6 3.02 6 2 6 C1.34 5.34 0.68 4.68 0 4 C0 2.68 0 1.36 0 0 Z " fill="#74A598" transform="translate(451,133)"/>
<path d="M0 0 C0.66 0 1.32 0 2 0 C3.38938077 1.96147874 4.7260411 3.96166576 6 6 C4.68 6 3.36 6 2 6 C0.25 3.5 0.25 3.5 -1 1 C-0.67 0.67 -0.34 0.34 0 0 Z " fill="#7CA394" transform="translate(444,125)"/>
<path d="M0 0 C1.32 0.66 2.64 1.32 4 2 C-0.75 5 -0.75 5 -3 5 C-3 4.01 -3 3.02 -3 2 C-2.01 1.34 -1.02 0.68 0 0 Z " fill="#7D9A91" transform="translate(165,505)"/>
<path d="M0 0 C0.99 0 1.98 0 3 0 C3 2.31 3 4.62 3 7 C1.5 5.75 1.5 5.75 0 4 C0 2.68 0 1.36 0 0 Z " fill="#6EA885" transform="translate(155,403)"/>
<path d="M0 0 C0.99 0.33 1.98 0.66 3 1 C2.67 1.99 2.34 2.98 2 4 C0.68 3.67 -0.64 3.34 -2 3 C-2 2.34 -2 1.68 -2 1 C-1.34 0.67 -0.68 0.34 0 0 Z M-3 4 C-1 5 -1 5 -1 5 Z " fill="#6AA984" transform="translate(225,370)"/>
<path d="M0 0 C0.66 0 1.32 0 2 0 C1.67 1.32 1.34 2.64 1 4 C-0.65 4.33 -2.3 4.66 -4 5 C-2.71937515 3.2925002 -1.38232443 1.62626404 0 0 Z " fill="#638D79" transform="translate(231,366)"/>
<path d="M0 0 C0.94875 0.350625 1.8975 0.70125 2.875 1.0625 C2.545 1.7225 2.215 2.3825 1.875 3.0625 C-2.875 2.3125 -2.875 2.3125 -5.125 0.0625 C-3.125 -0.9375 -3.125 -0.9375 0 0 Z " fill="#82A499" transform="translate(159.125,344.9375)"/>
<path d="M0 0 C1.9375 0.3125 1.9375 0.3125 4 1 C4.33 1.99 4.66 2.98 5 4 C4.34 4.66 3.68 5.32 3 6 C0 2.25 0 2.25 0 0 Z " fill="#749288" transform="translate(139,332)"/>
<path d="M0 0 C0.99 0 1.98 0 3 0 C3.33 1.65 3.66 3.3 4 5 C2.68 5 1.36 5 0 5 C0 3.35 0 1.7 0 0 Z " fill="#6E9784" transform="translate(214,238)"/>
<path d="M0 0 C0.66 0.33 1.32 0.66 2 1 C-0.21934164 4.32901247 -1.34683329 4.75023244 -5 6 C-5.33 5.01 -5.66 4.02 -6 3 C-4.03533587 1.93224776 -2.03144641 0.93446535 0 0 Z " fill="#769B8B" transform="translate(286,188)"/>
<path d="M0 0 C0 0.66 0 1.32 0 2 C-2.90600261 3.25664978 -4.79604584 4 -8 4 C-8 3.34 -8 2.68 -8 2 C-5.09399739 0.74335022 -3.20395416 0 0 0 Z " fill="#71A388" transform="translate(344,144)"/>
<path d="M0 0 C0.99 0.33 1.98 0.66 3 1 C0.63707344 3.52588702 -0.66462511 4.88820837 -4 6 C-2.84826645 3.53199953 -1.95216435 1.95216435 0 0 Z " fill="#77A48E" transform="translate(229,50)"/>
</svg>
